<?xml version='1.0' encoding='utf-8'?>
<svg xmlns="http://www.w3.org/2000/svg" width="1364px" height="1365px" version="1.1" viewBox="-142 379 1364 1365"> <g fill="#ffb638"> <path d="m-142 378.13c-0.23167 0-0.45385 0.09203-0.61767 0.25585s-0.25583 0.38598-0.25583 0.61765l0.00101 1365c0 0.4824 0.39107 0.8735 0.87349 0.8735l1364 1e-3c0.2317 0 0.4538-0.092 0.6177-0.2558 0.1638-0.1639 0.2558-0.386 0.2558-0.6177l-1e-3 -1365c0-0.48242-0.3911-0.8735-0.8735-0.8735l-1364-1e-3z"/> </g> <g fill-opacity=".5098"> <path d="m910.64 1630.6-3.4422 3.71q-24.484 11.222-143.31 18.027-119.65 6.8-281.81 5.65-154.75-1.6599-247.54-10.196-29.731-2.7594-48.979-6.0249l-16.178-3.3599q-13.333-3.4701-13.485-7.2532 4.0382-11.613 110.52-19.401 106.48-7.7876 266.84-8.198 160.36 0.1757 266.85 7.807 106.49 7.6316 110.54 19.239"/> </g> <g fill="#fee2c4"> <path d="m840.58 565.39q-0.08183-0.0381-0.16374-0.0757l-0.18286-0.0843q-8.958-4.1265-17.914-5.3711-8.8718-1.4274-16.926 0.18114-7.8712 1.6928-14.377 6.6742-6.3224 5.0656-10.365 13.841l25.319 20.085q2.1897-4.7533 7.4462-6.5427 5.2564-1.7889 10.741 0.73731 0.02263 0.01025 0.0453 0.02075 4.7189 2.1908 7.017 6.7783 2.2103 4.3423 0.02064 9.0956-1.5158 3.2906-5.7738 5.3181-4.0754 2.1118-13.761 3.4124-4.667 0.50953-9.1223 2.0029-4.1884 1.3949-8.4177 4.3221-3.9623 2.8285-7.6 7.3579-3.6378 4.5296-6.7536 11.294l-2.5265 5.4844 25.229 11.622q0.9265-2.0109 1.9514-3.7549 1.9658-3.3052 3.9889-4.8108 5.3817-3.5044 10.554-5.1107 5.1723-1.6063 10.092-2.6645 4.8355-0.87513 9.488-1.8344 4.5684-0.77664 8.9106-2.9869 4.1596-2.2946 8.0786-6.4725 3.8351-3.9956 7.2879-11.491 4.0422-8.7754 4.2187-17.337 0.275-8.2945-2.8515-15.94-3.028-7.3784-8.9932-13.672-5.9931-6.0538-14.661-10.078zm-45.812 112.97-25.046-11.537-11.621 25.229 25.046 11.538 11.621-25.229z"/> </g> <g> <path d="m527.85 515.26c-19.159 3.4193-34.25 10.983-46.433 23.189-7.0444 7.224-12.593 17.516-20.122 37.598-2.7304 7.3858-5.6269 14.689-6.3721 16.182-1.8216 3.5689-7.7041 11.206-11.102 14.362-3.6468 3.4048-10.275 11.873-12.014 15.358-4.2228 8.2998-4.7112 18.006-1.5464 31.11 2.4987 10.45 2.4161 10.865-4.2113 20.328-5.7161 8.1351-7.0399 11.786-7.0321 19.916 0.01184 12.443 6.9056 21.313 20.93 26.941 8.9626 3.5583 21.413 10.681 21.414 12.174 3e-4 0.2489-2.6539 0.6664-5.8889 1.0012-20.405 1.9275-36.989 9.2433-49.172 21.698-9.8618 10.13-13.173 17.931-22.513 53.196-3.4715 13.193-6.6132 24.23-6.9446 24.645-0.49716 0.58117-8.7253-15.67-17.703-35.073-3.824-8.375-5.7344-10.945-7.5588-10.279-0.66334 0.24939-2.1594-2.6524-4.5716-9.3695-6.4044-17.664-10.227-24.462-17.368-31.673-5.3143-5.3038-7.8046-7.0436-15.108-10.604-4.8137-2.318-13.527-5.628-19.502-7.2812-5.8915-1.7365-15.352-4.9628-20.829-7.1973-9.8755-3.9724-10.207-4.055-13.027-2.808-5.8045 2.4113-6.9592 9.298-2.5576 14.52 1.1627 1.4093 5.811 4.3079 10.625 6.7091 4.7307 2.3182 9.0466 4.637 9.5448 5.2172 0.66456 0.91174-1.3258 1.4112-9.7033 2.4978-13.52 1.838-18 1.8424-31.191-0.30201-6.3056-0.98926-13.026-1.5635-16.178-1.3947-4.8111 0.3362-5.5575 0.5861-7.5461 2.9935-1.1599 1.4944-2.652 2.6571-3.2327 2.6577-2.1568 0.00207-5.8871 2.909-6.7144 5.2325-1.158 3.4852 1.3358 8.8751 5.237 11.277 1.66 0.99378 3.2378 2.6513 3.5705 3.6465 0.74886 2.4052 3.4893 5.3886 6.5602 7.0448 3.3199 1.6562 38.918 12.24 44.975 13.313 2.655 0.49525 9.2921 1.2355 14.768 1.6452 5.4754 0.49219 11.864 1.4817 14.27 2.143 4.2319 1.2402 9.379 5.3 9.381 7.3739 5.2e-4 0.58083-1.4915 1.7437-3.3987 2.5751-6.1359 2.8263-6.2178 3.9879-0.63988 24.804 8.2423 31.1 17.228 59.297 27.707 86.994 6.7366 17.912 10.061 24.379 16.373 32.254 9.8835 12.434 23.163 18.891 39.007 18.876 11.946-0.01134 21.482-3.3388 32.093-11.147l5.2225-3.9037-0.49392 3.9822c-0.32981 2.1571-3.7112 22.816-7.5051 45.881-8.3303 50.362-10.226 62.724-10.221 67.95 0.00439 4.5623 1.6661 7.2155 6.1482 9.9487 2.6562 1.6565 2.7393 1.8225 1.996 5.2242-1.5693 7.2188-1.679 65.951-0.32696 91.915 0.75953 13.438 1.7733 32.683 2.2807 42.72 0.50736 10.037 1.4371 28.12 2.1124 40.231 1.2663 22.894 1.8606 37.245 4.661 102.86 2.8864 68.933 3.8218 92.906 5.5305 144.75 0.68494 22.315 1.5331 41.809 1.7004 43.218 0.41687 2.1568 1.0812 2.9026 4.4007 4.3098 2.1577 0.9104 5.311 1.9027 7.0534 2.2331 2.9869 0.5777 3.07 0.6605 3.0736 4.4764 0.00519 5.4751-2.061 13.441-4.9591 19.085-3.8915 7.7185-8.9475 12.12-22.96 19.765-30.014 16.454-39.214 24.924-39.203 36.04 0.00366 3.8158 0.33615 4.5621 2.9102 7.0484 6.0612 5.7179 22.737 7.9419 46.959 6.1766 13.355-0.9253 16.921-1.5094 32.513-5.4231 9.7034-2.4981 20.983-4.9147 25.047-5.4992 13.354-1.838 16.34-2.4215 20.9-4.5826 3.8143-1.6631 4.7259-2.6592 6.2989-5.9789 1.6556-3.6515 1.82-5.228 1.8078-18.086-0.0132-13.688-0.09663-14.268-2.5077-19.907-2.2451-5.3899-2.412-6.6341-2.6727-18.828l-0.3443-13.024 3.1519-0.5007c7.8796-1.3347 11.86-2.2511 12.275-2.9151 0.3313-0.581 1.7273-15.514 4.9273-52.267 0.65601-7.9642 1.9693-22.565 2.8727-32.355 0.90306-9.7896 1.9695-22.483 2.3787-28.207 0.4923-5.7246 1.3124-15.597 1.804-21.985 0.57464-6.388 0.98364-12.362 0.98274-13.274-0.1718-6.3045 7.8294-140.45 10.53-178.78l0.9825-13.688 1.5157 23.641c3.1175 50.267 5.8992 96.388 7.8402 131.06 4.3026 74.988 6.9108 113.31 11.355 163.41 0.9225 10.286 1.6777 19.244 1.6785 20.074 0.00243 2.5717 2.4093 3.8135 9.6274 4.802l7.218 0.9887-0.4844 13.771c-0.4051 10.204-0.81613 14.103-1.81 15.597-2.4023 3.7353-3.7224 11.203-3.7128 21.24 0.02136 22.315 3.4266 26.542 23.67 29.261 12.03 1.6475 21.987 3.6291 34.516 6.9352 13.359 3.5541 21.988 4.4584 40.984 4.5235 29.2 0.1377 39.4-3.8539 38.228-14.637-1.172-11.198-8.2295-17.745-34.872-32.071-20.916-11.345-24.817-14.328-28.808-22.868-2.1612-4.6433-4.0784-14.264-4.0845-20.569-0.00243-2.5716 0.16327-2.7376 6.0514-4.4024l5.9712-1.7477 0.56824-13.191c0.24194-7.2174 0.88494-28.703 1.3647-47.618 0.56276-18.914 1.2858-43.386 1.6901-54.337 1.2148-30.778 1.5387-38.908 2.0242-51.849 0.80956-20.988 4.4636-103.53 5.279-118.22 0.4071-7.7982 1.1398-22.482 1.6276-32.769 0.4051-10.287 1.6267-34.013 2.5214-52.679 2.3619-45.711 1.6538-92.082-1.3398-99.96-0.33296-0.9124 0.82714-2.3237 3.6456-4.4003l4.1449-3.0733-0.0058-6.0554c-0.0033-3.4843-2.4256-20.654-5.9298-41.638-8.1768-49.351-12.35-76.224-11.936-76.639 0.16571-0.24914 1.743 0.91086 3.4866 2.5683 14.115 13.591 37.262 16.141 56.83 6.2502 8.043-3.9897 19.148-15.697 23.95-25.159 9.0253-17.595 18.045-40.831 28.219-72.198 7.8574-24.479 15.794-52.36 15.212-53.853-0.33266-0.7463-1.6607-1.5747-3.0711-1.822-1.3276-0.3306-2.4893-0.6615-2.4895-0.8274 0-0.0829 0.82797-1.5768 1.7389-3.2368 2.8991-4.8972 6.7964-6.311 21.478-7.5695 16.506-1.5092 23.474-2.8431 37.738-7.3362 6.3856-1.9972 14.844-4.6599 18.742-5.8249 7.9614-2.4135 13.184-6.4004 13.18-10.133-0.0013-1.3274 1.0757-2.9874 2.8162-4.5653 5.8021-5.0657 5.5465-12.2-0.595-15.097-1.577-0.74512-3.3198-1.4073-3.8174-1.4068-0.4978 5e-4 -2.0746-0.7446-3.5687-1.6556-3.4861-2.0705-9.293-2.1478-25.219-0.3075-11.529 1.4212-11.861 1.3386-23.892-0.4749-11.615-1.8138-12.113-1.9792-10.704-3.391 0.82886-0.74734 4.6428-2.7418 8.457-4.4045 11.941-5.0718 16.167-9.8872 14.17-15.941-1.0816-3.2343-4.4026-6.1345-6.9742-6.1321-0.9954 9.5e-4 -4.9759 1.4979-8.79 3.4095-5.1408 2.4936-11.195 4.3248-22.474 6.99-17.665 4.1648-25.626 7.1586-33.75 12.89-8.9531 6.3128-14.422 13.038-20.052 24.491-5.8779 12.2-10.18 24.15-9.5143 26.721 0.66636 2.6539 12.123 11.519 19.094 14.914 8.5485 4.0567 16.68 5.542 24.476 4.4561 3.4838-0.4181 6.8842-1.085 7.7134-1.4176 2.0732-0.74844 1.9083 0.49594-2.2256 14.768-5.2915 18.504-4.3804 16.927-10.767 17.431-12.194 1.0072-23.478-1.7195-36.509-8.7583-6.6398-3.6438-17.931-12.924-17.932-14.666-0.0013-1.4104 8.526-19.254 11.756-24.732 3.4787-5.7272 3.7264-6.7228 1.9844-6.7212-1.2444 0.00125-6.2996 5.3152-6.2982 6.6425 0.00223 2.4888-18.047 38.675-18.795 37.846-0.4153-0.4144-2.9955-9.5372-8.2408-29.524-8.4922-32.095-13.314-43.456-22.365-52.241-11.791-11.685-25.568-17.894-44.069-19.95l-8.9602-0.98703 4.975-2.3273c17.081-7.98 21.061-10.141 24.791-13.462 4.7243-4.2354 8.2854-10.626 9.6889-17.679 1.3209-6.6378-0.1787-13.355-5.166-23.72-5.4859-11.36-5.9875-15.341-3.0127-27.621 2.8092-11.7 3.3018-17.009 2.217-23.644-1.3346-7.8795-5.6559-15.839-13.296-24.376-8.1381-9.0344-11.462-15.17-16.288-30.097-8.32-25.459-17.622-37.396-35.964-46.42-6.3077-3.1463-6.3077-3.1463-15.682-2.9715-8.5441 0.25686-10.121 0.00976-17.091-2.3065-9.294-3.0603-19.249-3.7144-29.285-1.9629zm27.878 5.3655c6.2238 2.3167 7.5514 2.4815 16.013 2.3073 7.9636-0.09036 9.9546 0.15664 13.855 1.7287 7.6349 3.1453 14.11 7.5358 20.088 13.668 6.6429 6.879 9.5517 12.434 15.624 29.932 5.6566 16.337 9.5623 23.384 17.618 32.419 4.0692 4.5587 7.7242 9.6984 9.6355 13.43 2.5766 5.3068 2.9933 7.0484 3.331 13.27 0.17036 4.6453-0.15694 9.374-0.98284 13.191-3.7166 17.258-3.7166 17.175-2.9648 22.65 0.58454 3.8156 2.0814 7.8789 5.4892 14.678 4.5712 8.9547 4.8206 9.7011 4.8266 15.84 0.09485 12.443-5.5392 19.583-21.874 27.23-5.2238 2.4937-11.94 5.8181-14.925 7.3141-4.5604 2.3273-6.5508 2.8269-12.938 3.2479l-7.4656 0.42186-1.2477-3.4c-0.83173-2.4048-2.6589-4.6431-6.561-7.8745-12.121-10.026-14.944-12.761-14.945-14.254-9e-4 -0.99563 2.4024-3.4866 6.4643-6.5596 14.092-10.964 20.546-27.644 25.073-64.812 1.3174-10.371 1.4546-40.483 0.29116-42.473-0.91401-1.5756-5.6458-5.0548-17.101-12.593-4.3164-2.8995-9.0485-6.7112-10.46-8.4518-3.0731-3.8957-10.801-17.161-13.793-23.795-1.1638-2.5704-2.5761-4.7261-3.0738-4.7256-0.49785 6e-4 -1.2434 0.99684-1.74 2.2415-5.1309 12.863-12.67 22.825-20.381 26.98-5.3892 2.9917-13.682 5.3224-25.294 7.2414-5.3084 0.9176-10.451 2.0009-11.363 2.4996-0.99486 0.58142-3.3959 5.4784-6.706 13.943-2.7306 7.2198-5.9592 14.274-7.1191 15.768-2.2371 2.9887-4.4763 3.4054-10.7 1.9182-4.8953-1.0737-10.701 0.42492-14.016 3.7465-3.3981 3.3214-4.7207 8.2169-4.7119 17.425 0.00751 7.7979 1.0061 11.032 5.1583 15.757 2.7404 3.0668 11.372 7.8698 14.193 7.8671 0.99537-1e-3 1.743 1.0769 2.3261 3.4819 2.2484 9.0399 7.984 21.146 13.466 28.358 1.7443 2.3212 2.991 4.7256 2.8258 5.4723-3.2238 12.115-3.5549 12.779-9.1087 17.264-7.4601 6.1456-14.338 13.784-14.999 16.771-0.49536 2.4063-0.66124 2.4895-5.3067 2.4939-3.8989 0.0038-5.1437-0.4099-7.5511-2.3156-5.3132-4.3084-15.688-10.271-21.995-12.588-11.867-4.3855-15.603-7.6998-19.096-16.739-1.0813-2.9855-1.3325-5.391-1.0876-9.6219 0.49163-6.3881 1.6505-9.0438 7.5327-17.096 3.8939-5.2299 4.3076-6.2257 4.552-10.954 0.24521-3.7335-0.17251-6.8855-1.4209-11.115-1.8308-6.0537-2.4194-14.349-1.2638-20.406 1.0728-5.8906 5.0483-12.448 12.838-20.751 11.187-12.039 13.341-15.691 22.61-38.845 2.4828-6.0578 5.5454-13.195 6.953-15.934 9.7701-19.421 29.086-32.215 56.125-37.3 9.1234-1.6681 16.839-1.0119 25.303 2.0494zm21.783 50.333c3.6551 5.3056 5.5647 7.1288 11.458 10.856 7.2217 4.6386 16.519 11.515 17.599 13.007 1.1629 1.4922 0.69311 30.859-0.53924 43.386-1.6441 15.68-3.0478 22.484-7.0187 34.018-6.8661 20.165-15.154 27.887-38.126 35.541-14.927 4.9084-22.725 4.3353-36.918-2.7023-18.176-9.1076-27.561-20.298-34.466-41.03l-2.6624-8.0444-5.9749-2.2339c-7.8006-2.9789-12.533-7.537-13.368-12.845-0.75123-4.8934 0.81426-16.094 2.719-19.331 2.0705-3.5688 6.7146-5.0665 12.025-3.9101 7.2187 1.6521 9.2922 1.2352 12.109-2.1686 1.3258-1.6603 4.0584-6.8064 5.8791-11.37 7.0348-17.012 7.4489-17.76 10.269-18.675 1.4099-0.41638 5.3908-1.2494 8.7914-1.7504 9.7044-1.5028 18.993-4.0833 24.631-6.7432 6.2189-2.9921 14.092-11.129 18.895-19.595l3.3125-5.8102 3.4904 6.5502c1.9114 3.5654 5.484 9.3689 7.8931 12.851zm-64.745 132.13c10.708 7.2899 22.409 11.675 31.451 11.667 5.0603-0.00476 21.481-4.4171 29.359-7.8258 1.2438-0.5819 1.4099-0.16737 1.4132 3.2336 0.0021 2.1571-0.9881 7.5502-2.1452 11.948-2.8929 11.036-11.497 35.765-14.891 42.819-2.4009 5.0627-14.33 21.997-18.557 26.397-1.4088 1.4945-1.8241 0.9973-10.964-14.092-7.5608-12.353-10.47-17.991-13.796-26.947-2.3288-6.2195-5.9874-15.258-7.9831-20.068-2.0783-4.8094-4.4068-10.78-5.1559-13.434-1.2485-4.3126-1.2491-4.9763-0.0896-6.8853 0.66253-1.1621 1.6554-3.8176 2.2341-5.8922 1.405-5.6422 1.5706-5.9741 2.6496-5.3116 0.58106 0.41433 3.4863 2.3196 6.4745 4.3905zm79.907 21.575c5.3126 3.5623 5.8967 7.1287 5.4238 33.011-0.39616 19.329-0.64256 21.984-1.8856 23.395-2.2375 2.408-5.3073 1.9961-11.035-1.4827-6.8062-4.1411-18.844-13.67-20.505-16.24-1.3291-1.9896-1.2468-2.5702 2.7239-14.354 2.2333-6.7214 5.707-17.758 7.6914-24.479l3.5555-12.198 5.4799 5.1379c2.9891 2.8176 6.8081 6.0492 8.5512 7.2089zm-94.826-8.9514c3.8e-4 0.4149 2.828 7.7953 6.1543 16.336 3.4094 8.5413 7.4008 18.575 8.7318 22.389l2.5783 6.8828-4.8072 4.4013c-9.1999 8.6361-20.97 18.685-22.463 19.184-2.488 0.7489-5.7248-0.98984-7.3038-3.8918-0.99738-1.9901-1.4984-5.3078-1.7535-11.861-0.34003-8.5441 1.0428-37.248 1.9522-40.484 0.5788-1.9085 15.25-14.781 16.163-14.201 0.41505 0.24827 0.7474 0.8287 0.7478 1.2434zm-208.45 14.717c17.841 5.5409 23.899 7.9409 29.958 11.917 5.5614 3.5617 12.204 10.44 15.362 15.83 4.2375 7.13 13.053 30.681 13.057 34.663 0.00153 1.5763-10.279 7.8907-19.566 11.881-6.1362 2.6607-17.581 5.3262-18.578 4.3318-0.33218-0.4145-1.0805-2.239-1.6629-3.9803-0.58243-1.8246-2.7422-4.9749-4.9011-7.1295-4.733-4.7241-9.048-6.1301-23.733-7.8583-15.349-1.8102-21.157-3.049-40.657-9.0031-16.762-5.1272-21.326-7.1968-21.827-9.8509-0.16687-0.99514 0.74527-1.4109 3.7312-1.9115 4.0642-0.58474 4.728-0.5021 20.991 3.4641 6.0571 1.4044 11.948 2.3114 16.179 2.3074 6.7194 0.07629 6.7194 0.07629 17.996-5.6586 10.199-5.2359 11.774-5.7348 17.332-6.1551 5.1431-0.2539 7.1341-0.0068 12.362 1.813 3.4024 1.2413 6.8875 2.3994 7.7174 2.7305 0.91281 0.24799 1.4103-0.00136 1.4096-0.74806-0.0019-1.9911-2.5753-3.7306-7.8859-5.4678-12.447-4.0527-19-3.0509-34.256 4.8444-12.271 6.3995-14.926 6.402-38.574 0.3689-7.8828-2.0665-8.8783-2.1483-14.435-1.2306-6.8842 1.168-8.6269 0.589-10.621-3.2252-1.7454-3.3994-1.5807-4.7268 0.82355-6.3053 1.9897-1.3292 2.8192-1.33 12.692 0.0708 5.8076 0.7411 14.105 2.3094 18.419 3.3835 9.0444 2.3142 26.549 3.3757 26.547 1.5508-0.00165-1.742-4.0675-2.8995-10.621-2.8932-4.3966 0.0043-10.287-0.9027-18.419-2.803-6.6379-1.4868-14.022-3.056-16.346-3.3854-2.406-0.3295-4.3975-0.90835-4.3979-1.3233-0.00141-1.4932 7.8796-1.2518 21.154 0.56067 5.061 0.7417 12.279 1.3156 16.178 1.3118 8.0465-0.0911 25.631-2.4304 27.206-3.6763 1.6578-1.4117 1.157-4.5636-1.1675-6.3864-1.1622-0.91135-6.0592-3.6443-10.79-6.0454-7.0545-3.5603-8.8809-4.8858-9.9614-7.2075-0.99756-2.0729-1.1646-3.2341-0.5022-4.6449 1.2416-2.739 3.8961-2.9074 10.12-0.59056 2.9874 1.0756 11.866 3.9707 19.667 6.4517zm540.37-5.1631c1.0789 0.5796 1.5778 1.7406 1.5795 3.5653 0.0036 3.7333-2.8145 6.2248-12.433 10.962-9.7013 4.7378-10.945 5.8179-10.61 9.0524 0.16803 2.0738 0.6662 2.654 2.3255 2.8185 1.1616 0.08157 6.3885 0.98887 11.616 1.8965 10.288 1.8982 17.671 1.8911 34.094-0.19847 4.9767-0.58543 9.3731-0.75573 10.369-0.34179 1.5768 0.66236 1.5768 0.66236-0.08206 0.9956-0.91224 0.24966-7.0494 1.8317-13.601 3.6631-8.8738 2.4972-14.265 3.4976-20.569 3.8357-8.6268 0.506-10.285 1.0883-8.6244 3.0774 1.4949 1.7409 13.439 0.651 25.797-2.4303 6.1371-1.5821 14.68-3.4152 18.993-4.1658 7.05-1.1682 7.9626-1.169 9.7057-0.00927 2.8224 1.822 2.5765 4.9746-0.73854 8.296-2.6521 2.6573-2.9009 2.7404-6.8835 1.9148-5.476-0.99054-9.2082-0.40619-20.321 3.1715-5.1416 1.664-11.528 3.2464-14.182 3.4146-4.562 0.50234-5.2259 0.2542-16.596-5.2101l-11.868-5.7126-8.9595-0.24026c-6.1388-0.2429-10.867 0.09316-14.931 1.0097-6.2202 1.4162-11.361 3.9098-11.36 5.5689 1e-3 1.0783 1.8257 0.82785 11.612-1.7532 5.3907-1.4153 8.7915-1.7506 14.516-1.507 7.3833 0.2417 7.7153 0.32444 18.256 5.6233l10.789 5.3817 7.8806-0.00755c6.8024-0.0065 9.2079-0.42336 17.584-3.1691 9.7028-3.0786 12.44-3.4958 17.169-2.588 3.0698 0.66064 3.4036 2.6515 0.6679 4.562-2.487 1.7444-6.7162 3.2417-23.385 8.1521-16.752 4.993-26.705 7.0767-42.299 8.8336-14.93 1.6735-18.745 3.3363-22.803 10.059-4.9696 8.0515-4.9696 8.0515-13.1 7.5616-6.388-0.3256-7.8816-0.8219-14.604-4.2167-4.1497-2.0698-10.043-5.7142-13.198-8.1169-4.8148-3.8113-5.4794-4.6404-5.0663-6.4655 0.90834-4.3978 8.8543-23.07 12.167-28.963 7.5364-13.197 22.791-23.498 41.202-27.83 4.8102-1.1659 12.026-2.8319 16.09-3.7483 4.1468-0.9165 10.118-2.9962 13.268-4.5752 6.3849-3.0757 8.0435-3.409 10.534-2.1671zm-198.34 11.306c13.607 2.3098 20.826 4.4599 27.383 8.1035 17.928 10.02 24.409 20.964 33.568 56.212 1.5821 6.1374 4.6623 17.665 6.8266 25.461l3.9127 14.347-8.3621 17.18c-4.5535 9.5442-9.4379 19.918-10.845 23.238-3.3936 7.7181-6.2852 20.081-5.1228 21.241 1.4946 1.4919 2.5712-0.33426 5.2171-9.4619 2.8939-10.04 6.9498-19.252 21.108-47.471l10.267-20.583 5.4798 5.055c4.0684 3.7291 8.2186 6.2968 16.352 10.354 12.449 6.044 19.502 7.8622 31.199 7.8508 4.065-0.00378 7.4662 0.15882 7.4664 0.32471 2e-4 0.33165-2.3158 7.1362-3.0608 8.7962-0.24837 0.66383-0.49635 1.4938-0.41304 1.8254 0.16687 0.99525-14.395 41.491-19.195 53.359-9.1038 22.24-12.416 28.133-20.787 36.603-5.4698 5.5631-8.8684 8.3037-12.848 10.216-9.95 4.8211-22.724 6.3264-32.598 3.7642-9.3762-2.3967-19.42-8.6918-24.237-15.24l-2.0766-2.8187-0.0559-58.483c-0.0315-32.933 0.35306-64.54 0.8435-72.172 0.65434-9.7063 0.6504-13.771-0.0139-14.434-3.8195-3.8121-4.6334 12.531-4.4804 85.697 0.0409 42.888 0.3933 64.456 1.0609 68.437 0.50067 3.1521 2.2533 14.183 3.922 24.468 1.5861 10.285 3.5051 21.814 4.1723 25.712 3.9195 21.399 9.762 58.557 10.182 64.364l0.50407 6.6361-3.3983 2.9061c-4.31 3.7373-13.513 8.8064-24.293 13.462-17.496 7.6488-28.029 10.231-53.991 13.491-15.096 1.9222-42.718 4.0228-43.797 3.3605-0.24908-0.1661-0.16995-4.3139 0.15705-9.2916 1.063-15.928 1.4861-267.53 0.5624-279.23-1.0066-11.779-0.0922-9.7886-9.2277-20.564l-2.5744-3.067 3.5628-4.3999c1.9887-2.4906 6.0477-8.3843 9.1124-13.199 3.0648-4.8142 6.2126-9.6288 7.1239-10.708l1.5742-2.0755 4.8155 4.226c17.02 14.584 26.812 18.805 32.449 13.989l2.321-1.9931-0.02317-24.306-0.1062-24.223 9.2084 0.4889c4.9776 0.2441 14.519 1.3963 21.156 2.5511zm-154.94 18.979c-0.15497 11.448-0.06177 22.149 0.27155 23.725 0.58392 3.4004 5.4006 8.954 8.3049 9.6978 3.4849 0.90917 7.3816-1.5001 14.591-9.056 6.2983-6.5596 15.748-14.532 17.241-14.534 0.33193-4e-4 1.2454 1.2432 2.1593 2.6525 4.0717 7.0472 22.514 34.654 25.504 38.218l3.239 3.896 0.7603 14.351c1.8582 34.591 1.0028 267.86-1.0582 281.55l-0.41205 2.7379-9.2909 0.0087c-9.0422 0.0087-44.549-1.9479-53.675-2.9347-7.6327-0.822-30.368-6.0266-38.002-8.7568-3.9831-1.4064-10.373-3.8892-14.274-5.6276-3.9006-1.7381-7.469-3.2279-7.8841-3.3937-0.49784-0.1654-5.0633-3.0642-10.21-6.4605-9.1308-6.0469-9.2969-6.2124-9.2999-9.2821-0.00396-4.1479 2.4688-20.741 7.006-47.291 4.7843-28.21 8.9904-54.013 10.803-67.121 1.3185-9.2091 1.4763-17.671 1.5048-74.661-0.05848-61.138-0.57462-80.383-2.1533-83.036-1.4123-2.2386-2.4053 0.41697-2.3168 6.3067 0.08607 3.1524 0.28363 36.251 0.48523 73.498l0.31354 67.774-4.7243 4.3184c-8.62 7.7229-22.8 13.294-33.833 13.305-16.425 0.01563-34.106-11.581-42.666-28.081-4.4878-8.6231-12.971-31.344-20.792-55.643-3.3281-10.283-7.0721-21.894-8.4034-25.957l-2.4126-7.2147 6.8854-0.00694c3.8158-0.0033 8.9588-0.3401 11.364-0.84035 7.1329-1.334 28.193-11.972 35.736-18.118l6.3827-5.1494 1.246 1.8238c0.66471 1.0779 2.4934 4.892 4.073 8.5404 16.128 36.402 21.699 49.669 23.197 55.06 3.1635 11.611 3.7454 12.937 4.9068 12.936 3.5671-0.00342-1.343-16.424-12.15-40.636-4.6555-10.531-8.8122-19.901-9.0621-20.896-0.58226-1.6585 2.8878-16.345 7.8488-33.438 0.8267-2.9873 2.6454-9.6254 4.0506-14.853 3.4719-12.778 7.6923-23.65 11.42-29.045 4.2248-6.2257 14.751-15.858 20.555-18.933 8.3742-4.4048 17.995-6.488 42.796-9.0832 2.8201-0.25159 5.3914-0.66894 5.5571-0.83508 0.16583-0.1659 1.327-0.33276 2.4884-0.33396l2.1569-2e-3 -0.22901 20.822zm-121.32 41.677c1.8286 3.8143 4.9875 10.614 7.1486 15.174l3.9067 8.2918-6.0503 5.5638c-4.5586 4.1521-9.1183 7.1431-17.99 11.963-13.183 6.9808-18.574 8.3964-27.949 7.3269-6.6372-0.7404-8.38-1.4853-8.8799-3.8074-0.41641-1.6588-5.9949-23.056-6.9936-26.456-0.33282-1.078 0.82813-1.4111 7.2984-1.832 14.184-1.0088 27.453-5.7502 41.132-14.805 4.8083-3.1571 5.2228-3.5723 4.7229-5.8116-0.91647-4.1468 0.2463-2.6548 3.6543 4.3932zm-49.679 11.91c8.5e-4 0.9127-0.91145 1.2455-3.483 1.1648l-3.5672-0.07947 2.4876-1.0809c3.2338-1.4964 4.5611-1.4976 4.5626-0.00437zm112.34 279.12c15.604 9.1101 31.122 14.404 57.009 19.357 20.826 4.0444 81.799 5.4793 107.01 2.5519 17.502-2.0078 41.14-6.095 49.682-8.5919 10.201-2.9134 21.063-7.3205 29.852-11.891 9.0375-4.8203 8.0407-6.2296 9.4696 13.181 1.5125 20.157 0.15405 74.494-3.2747 132.32-2.6128 43.72-5.8597 118.3-7.7129 175.46-1.2882 40.815-2.4192 72.671-3.6333 104.28-0.48725 11.034-0.80685 23.809-0.80249 28.372 0.00794 8.2954 0.00794 8.3783-2.3134 9.5419-1.2438 0.6649-4.7268 1.9127-7.6294 2.7451-4.7272 1.3317-8.7088 1.5016-33.595 1.5255-29.864 0.0286-38.824-0.7926-41.398-3.6104-1.4947-1.658-1.8291-4.3951-4.6868-43.216-0.9245-12.525-2.0998-27.124-2.5195-32.35-2.518-30.608-3.443-43.714-4.6268-67.19-0.76027-14.351-2.0267-37.328-2.9522-51.015-0.9256-13.687-2.1906-35.171-2.9492-47.696-1.8562-32.849-3.5418-60.305-5.5639-92.905l-1.7693-28.618 2.1349-22.815c1.2323-12.527 2.3-23.894 2.5476-25.138 0.41246-2.4059-1.4972-4.0635-2.9059-2.5687-0.3315 0.4148-1.2371 7.4673-1.9758 15.68-0.73877 8.2134-1.8884 20.492-2.5454 27.378-2.4639 26.05-9.74 137.72-13.899 212.38-1.713 30.363-2.613 43.388-4.9106 69.687-1.0667 12.278-3.1173 36.586-4.5939 53.925-1.3937 17.339-2.9556 32.356-3.2864 33.351-0.4137 1.1619-1.823 2.1586-3.8135 2.6584-6.3028 1.7483-24.469 2.7608-46.287 2.4502-22.398-0.2276-22.398-0.2276-29.452-2.7095-6.7216-2.3993-7.0536-2.648-7.637-5.3848-0.33331-1.5758-1.3512-24.968-2.3723-51.845-5.115-143.92-7.6592-201.91-12.809-296.14-1.2658-22.397-1.8671-43.965-1.9715-66.362-0.11052-28.785 0.53342-49.359 1.5289-49.36 0.16594-2e-4 2.3238 1.159 4.6479 2.5672zm225.6 482.5c1.5032 10.617 4.4961 17.25 10.225 22.554l3.9855 3.7293-5.0576 2.7423c-17.246 9.4735-18.573 9.8066-28.448 6.3318-12.447-4.3016-32.947-14.154-37.845-18.214l-2.1585-1.7401 0.9833-12.693 0.98324-12.776 22.813 0.4757c12.609 0.3197 25.135 0.225 27.873-0.1096 3.1517-0.4179 5.0599-0.3368 5.1433 0.1609 0.16614 0.4147 0.7511 4.7277 1.5023 9.5385zm-142.68 2.8746 0.59278 12.608-2.7354 2.3253c-2.9011 2.4086-22.055 12.133-31.342 15.875-2.9023 1.1638-7.4635 2.5786-10.118 3.1618-5.8887 1.167-9.1248 0.3407-17.591-4.9603-3.3201-1.9879-7.1381-4.1409-8.7147-4.7201l-2.7387-1.1589 3.3982-3.0727c6.7965-6.1452 9.8588-13.531 11.918-28.548l0.57704-3.7336 56.077-0.3857 0.67577 12.609zm3.8379 22.975c1.4976 4.4778 1.8321 7.2981 1.9239 16.589 0.09218 9.6227-0.15483 11.614-1.5624 14.436-2.5666 5.1456-4.8054 6.3092-15.008 7.646-12.857 1.6717-21.068 3.2556-37.655 7.4194-16.172 3.9971-28.531 5.4193-46.699 5.4368-16.176 0.0156-26.217-2.7123-28.876-7.6042-2.327-4.3947 2.4763-12.86 10.6-18.675 7.4609-5.3166 35.982-21.852 37.724-21.854 0.74658-6e-4 6.1408 2.3999 11.868 5.3808 10.125 5.2164 10.789 5.382 16.679 5.3763 3.3182-0.0032 7.8802-0.5881 10.036-1.3372 5.3075-1.747 24.047-10.89 31.757-15.543 3.3992-2.0771 6.4673-3.4904 6.7993-3.2415 0.24926 0.3314 1.3301 2.9849 2.4114 5.9706zm95.816 2.7281c19.504 9.6874 24.649 11.507 32.281 11.583 4.9775 0.078 6.5531-0.3383 10.782-2.4994 2.7361-1.4127 7.711-3.989 11.027-5.7346l6.0529-3.1581 10.125 5.1338c23.737 12.172 34.363 19.71 37.853 26.841 3.5741 7.2966 1.5039 11.28-7.5351 14.442-3.8148 1.3309-6.9666 1.4999-23.89 1.4332-21.486 0.0204-25.551-0.4736-45.631-5.2658-13.608-3.2218-37.171-7.4301-41.733-7.4257-3.1524 0.0028-7.5532-4.3895-8.8015-8.7019-1.1654-4.1467-1.1816-21.07-0.10807-26.131 1.0739-4.7293 2.4806-8.298 3.3102-8.2989 0.33186-3e-4 7.6353 3.4769 16.267 7.7823z"/> </g> <g fill="#fee2c4"> <path d="m521.37 595.24c-5.9712 1.7478-7.7122 2.5791-10.281 5.319-2.9004 3.1554-1.4894 3.9004 2.9882 1.7392 6.0528-2.9921 14.098-4.825 21.232-4.8317 6.3045-0.0061 6.3875-0.00623 5.2244-1.6642-0.91386-1.4922-2.0755-1.74-7.6337-1.9005-4.2308-0.07886-8.2953 0.33984-11.53 1.3382z"/> <path d="m578.29 599.33c-1.1594 2.0748-0.41226 2.5719 3.6526 2.5681 6.1386-6e-3 12.53 4.2185 17.515 11.514 0.1661 0.08275 0.5806-5e-4 1.0781-0.33265 1.3266-0.74815-1.1672-6.0548-4.3226-9.4528-3.4878-3.6469-8.3843-5.882-13.196-5.8773-2.9864 0.0028-4.1474 0.33554-4.727 1.5807z"/> </g> <g> <path d="m525.96 615.06c-4.8068 4.816-2.6442 10.953 3.9093 10.947 3.5671-0.00343 6.0533-2.4945 6.0498-6.0617-0.00236-2.5716-2.4117-6.3852-4.1538-6.3835-0.33183 3.6e-4 -1.2445-0.24756-1.9913-0.49585-0.83004-0.33095-2.2395 0.49985-3.814 1.9945z"/> <path d="m575.57 619.91c-4.8892 5.3136-3.0594 10.207 3.743 10.2 4.4794-0.00425 6.3857-1.8314 6.3817-6.0618-0.00573-6.0558-5.981-8.5388-10.125-4.1382z"/> <path d="m561.64 632.53c0.00976 10.204 0.76086 14.848 3.7538 21.814 0.41605 1.161 0.1673 1.4931-0.994 1.4942-2.4057 0.00234-9.3714 2.5805-9.3706 3.41 0.00105 1.0784 5.8077 0.90711 9.2078-0.17468 4.9759-1.6641 5.3068-2.4109 3.2277-7.884-1.4139-3.8144-1.9982-7.6299-2.5049-16.92-0.42106-6.6358-0.7581-12.111-0.7583-12.276-0.0832-0.08314-0.66386-0.16554-1.3274-0.1648-1.0784 9.6e-4 -1.2427 1.7432-1.2341 10.702z"/> <path d="m536.22 677.77c-6.1373 1.4162-6.8834 1.8314-6.8818 3.5735 0.00125 1.4103 0.4989 1.3269 11.53-0.59165 6.6352-1.2505 17.337-0.43152 26.382 1.9657 3.4849 0.9093 4.4807 0.99121 5.2262 0.07815 1.326-1.5777-0.6663-2.82-7.1382-4.2239-8.2972-1.8171-22.815-2.2183-29.118-0.80176z"/> <path d="m534.45 821.78c-0.49666 0.99609-0.8263 3.3192-0.65865 5.2268 0.25165 2.9032 0.58415 3.5666 2.5757 4.2282 3.4852 1.2411 5.0601-0.17064 5.3875-4.7336 0.24578-3.1523-0.08675-3.9818-1.6639-5.0587-2.5734-1.8226-4.5641-1.6546-5.6407 0.33727zm4.1518 4.2268c7.6e-4 0.82956-0.33024 1.5765-0.82801 1.5769-0.41483 4.7e-4 -0.83063-0.9945-0.83166-2.156-0.0011-1.1614 0.32989-1.9082 0.82806-1.5771 0.49797 0.24856 0.83077 1.2438 0.83161 2.1562z"/> <path d="m534.17 875.04c-2.734 3.8185-0.4877 10.536 3.4942 10.615 1.991-0.00185 4.3105-3.2394 4.3077-6.2258-0.0051-5.3093-5.1511-8.2076-7.8019-4.3891zm4.4833 3.9776c2e-3 2.0739-1.4902 2.988-2.1556 1.3294-0.66525-1.7415 0.245-4.0652 1.3242-3.4026 0.415 0.2484 0.8307 1.2436 0.8315 2.0732z"/> <path d="m534.23 938.08c-1.5741 2.2411-1.7359 6.4721-0.24095 8.3788 0.49855 0.74609 1.9924 1.5741 3.1541 1.8219 1.7425 0.41309 2.4889 0.08069 3.5657-1.3308 2.8167-4.0675 0.73639-10.702-3.2454-10.698-1.0784 9.5e-4 -2.5707 0.8319-3.2334 1.828zm4.3185 5.056c-0.1649 0.99573-0.579 1.8257-1.0767 1.8262-0.99548 9.6e-4 -1.5795-3.3998-0.83464-5.2254 0.4965-1.3277 0.5795-1.3279 1.3273 0.08156 0.4987 0.8291 0.7489 2.3219 0.584 3.3176z"/> <path d="m534.54 998.97c-1.7402 2.0757-1.403 7.7162 0.50646 9.1248 3.7355 2.7341 7.0516 0.65686 7.0467-4.5692-0.00445-4.6456-4.9846-7.6274-7.5532-4.5556zm4.2349 4.5587c8e-4 0.82947-0.5791 1.5766-1.2428 1.5771-1.2443 0.00136-1.7446-2.5699-0.75005-3.5662 0.91181-0.83055 1.9912 0.24685 1.9928 1.989z"/> <path d="m534.68 1064.6c-2.9826 3.8187-1.1516 10.205 2.9132 10.201 3.6502-0.0035 6.3822-5.6473 4.4707-9.2952-1.9946-3.8141-4.8154-4.2262-7.3839-0.9055zm4.5652 2.7331c0.6647 1.0778-0.3278 4.1481-1.3233 4.1489-1.0785 9e-4 -1.8273-2.2379-1.248-3.7318 0.49655-1.4106 1.8236-1.661 2.5714-0.4171z"/> </g> <g fill="#5a452f"> <path d="m413.17 1085.1c-0.38392 0-0.56953 0.3138-0.6152 0.3946h-8e-5c-0.96562 1.7075-1.512 19.742-1.4904 44.599 0.00147 1.6107 0.0053 3.2645 0.01172 4.9331v3e-4c0.10444 22.405 0.70603 43.986 1.9724 66.392 5.1502 94.23 7.694 152.2 12.809 296.13v0.0015c1.0191 26.822 2.0376 50.302 2.3842 51.94l2.2e-4 8e-4c0.65741 3.0845 1.3243 3.4163 7.9997 5.7991l0.00237 9e-4c7.157 2.5183 7.2516 2.5139 29.634 2.7414h-0.00226c2.6188 0.0372 5.2329 0.0558 7.7312 0.0558 18.278 0 33.061-0.9629 38.702-2.523h-1e-3c2.0553-0.5158 3.6975-1.5862 4.2074-3.0142 0.0039-0.011 0.0071-0.0206 0.0076-0.0225 0.3603-1.1151 1.9234-16.218 3.3104-33.473h-1e-4l1.5366-18.092 1.6293-19.181c0.55673-6.5374 1.0476-12.274 1.4278-16.651 2.2985-26.309 3.1985-39.334 4.912-69.704v-3e-4c4.1596-74.669 11.435-186.32 13.898-212.36 0.65534-6.8677 1.8083-19.182 2.5455-27.378h-1e-4l4e-4 -0.0035 2.4e-4 -0.0019c0.70716-7.8629 1.5546-14.471 1.876-15.388h-0.00535c0.26665-0.2633 0.51379-0.3437 0.70865-0.3437 0.49716 0 1.2314 0.6255 1.2314 1.915 0 0.1787-0.01555 0.3669-0.04901 0.5623h-1.9e-4c-0.1997 1.0378-0.86639 7.8932-1.711 16.565-0.27399 2.8133-0.54026 5.5482-0.84186 8.6132l-2e-4 0.0026-2.1349 22.815-0.00137 0.0879 1.7693 28.618c2.0232 32.616 3.7067 60.038 5.5638 92.902l5e-5 0.0019 0.50175 8.3327 0.6866 11.397 7e-5 4e-4c0.59303 9.7918 1.2317 20.142 1.761 27.97 0.92555 13.686 2.1912 36.652 2.9517 51.007 1.1841 23.478 2.1101 36.599 4.6281 67.206l0.03875 0.4833 0.04712 0.5873c0.47778 5.9478 1.5659 19.524 2.4332 31.274h-7e-5c2.8426 38.615 3.1641 41.704 4.8307 43.552l0.00246 3e-3c2.7495 3.0096 11.856 3.7949 40.342 3.7949 0.65093 0 0.81123 0 1.4736-5e-4h6e-5c24.844-0.024 28.926-0.1881 33.748-1.5466l0.0025-9e-4c2.8944-0.8297 6.4186-2.0874 7.7274-2.7829h-5.7e-4c2.6954-1.3514 2.6331-1.8854 2.6253-10.048-0.00436-4.5532 0.31488-17.314 0.802-28.346l1.9e-4 -0.0034c1.2134-31.59 2.3456-63.484 3.6334-104.28h-1e-4c1.8528-57.147 5.1002-131.74 7.7122-175.44l3e-5 -3e-4c3.4284-57.816 4.7898-112.19 3.2741-132.39-0.12454-1.6919-0.23187-3.2433-0.3277-4.6288-0.07854-1.1354-0.15289-2.2082-0.22224-3.1508-0.4298-5.839-0.713-8.9931-2.986-8.9931-1.1201 0-2.6411 0.8662-4.599 1.9515-0.63501 0.3523-1.3854 0.7678-2.1642 1.1833h-7e-5c-8.7558 4.5532-19.581 8.9444-29.742 11.846l-0.00337 9e-4c-8.493 2.4828-32.095 6.5662-49.588 8.5731h-8e-4c-9.0894 1.0553-22.871 1.5436-37.755 1.5436-26.261 1e-4 -55.857-1.5195-69.087-4.0889l-0.00153-2e-4c-25.844-4.9445-41.296-10.222-56.822-19.286-2.1661-1.3123-4.2708-2.46-4.7127-2.6081l-9.2e-4 -2e-4c-0.01733-0.0059-0.11356-0.0404-0.22708-0.0404z"/> </g> <g fill="#916c23"> <path d="m601.06 733.08c-0.1146 0-0.22527 0.04407-0.3087 0.12354-0.08924 0.08493-0.13947 0.20288-0.1389 0.32617l0.1062 24.223v-0.00157l0.023 24.1-2.1648 1.859h6e-5c-1.3881 1.1859-3.0411 1.7928-5.0366 1.7928-5.7303 0-14.233-4.9889-26.825-15.778h-4e-5l-4.8155-4.226c-0.08204-0.07203-0.18714-0.1111-0.2953-0.1111-0.01495 0-0.02997 7.4e-4 -0.04504 0.0022-0.12366 0.01246-0.23656 0.07593-0.31171 0.17493l-1.5741 2.0753h-7.6e-4c-0.95536 1.1432-4.1067 5.9668-7.1441 10.738-3.0623 4.8107-7.111 10.688-9.0847 13.16l-3.5608 4.3974c-0.13489 0.16665-0.13275 0.4054 0.00505 0.5696l2.5744 3.067 0.0014 0.0017c0.73727 0.86953 1.3881 1.6315 2.0028 2.3512 0.4888 0.5723 0.9999 1.1708 1.4098 1.6543 4.8883 5.7659 4.9058 6.2692 5.4909 13.621 0.06704 0.84107 0.1325 1.666 0.2196 2.6859 0.9214 11.709 0.4989 263.25-0.5631 279.16v6e-4c-0.30284 4.6103-0.40947 8.6843-0.1768 9.3882l6e-5 3e-4c0.01194 0.0364 0.06324 0.2018 0.219 0.3052l0.01334 0.0083c0.04977 0.0306 0.101 0.0514 0.14 0.0649h2e-4c0.29067 0.1003 0.9327 0.126 1.7463 0.126 6.3581 0 29.04-1.8126 42.2-3.4888h3.5e-4c25.988-3.2631 36.566-5.8527 54.113-13.523h-1.5e-4c10.782-4.6571 20.041-9.7488 24.407-13.533l3.3983-2.9066c0.10844-0.0927 0.16624-0.2319 0.15544-0.3743l-0.50414-6.636h-1e-4c-0.42325-5.8409-6.2692-43.014-10.187-64.405-0.66726-3.8985-2.5853-15.421-4.1712-25.705l-6.1e-4 -0.0039-0.00496-0.03054v4.9e-4c-1.6684-10.284-3.4153-21.279-3.9167-24.436l-6.7e-4 -0.0038c-0.65955-3.9336-1.0137-25.443-1.0546-68.363v-4.7e-4c-0.14077-67.294 0.6745-85.757 3.0961-85.762h6e-4c0.1073 0 0.3096 0.07287 0.6196 0.3823 0.47495 0.474 0.5508 4.1887-0.1166 14.087l-6e-5 0.00134c-0.4914 7.6482-0.87594 39.276-0.84444 72.201l0.0559 58.483c1e-4 0.09545 0.0307 0.18834 0.0873 0.2651l2.0767 2.8188c4.8905 6.6476 15.032 12.992 24.487 15.409h-2.6e-4c3.2472 0.84255 6.7981 1.249 10.451 1.249 7.595 0 15.669-1.7571 22.452-5.0433 4.0506-1.9458 7.4933-4.7312 12.973-10.305 8.4357-8.5356 11.775-14.499 20.883-36.748l6.7e-4 -0.00173c4.7302-11.694 19.072-51.534 19.226-53.445 0.00251-0.03 0.00623-0.0897-0.00503-0.1561l-0.0067-0.0321h1e-4l-3e-4 -0.0015c-0.03866-0.1825 0.13046-0.84043 0.388-1.5342h-0.00107c0.73277-1.6324 2.987-8.2293 3.0913-8.8791 0.00299-0.01856 0.00876-0.05946 0.00876-0.10035 0-0.33485-0.31784-0.45495-0.3777-0.46985h-0.0099c-0.5929-0.1741-3.7689-0.30224-7.3702-0.3026h-0.00751c0.01862 0-0.12115 1e-4 -0.15275 1e-4h-0.01125-0.03919-0.05316c-11.55 0-18.531-1.8035-30.891-7.8038h-2e-4c-8.1197-4.0502-12.227-6.5962-16.248-10.282h5e-5l-5.4798-5.0549c-0.08346-0.077-0.19206-0.11865-0.30359-0.11865-0.02692 0-0.05397 0.00245-0.08087 0.00735-0.1385 0.02536-0.2569 0.1145-0.31977 0.24045l-10.267 20.583h-5e-5c-14.155 28.212-18.231 37.461-21.138 47.546-2.198 7.5827-3.2355 9.6034-3.9217 9.6034-0.1016 0-0.2749-0.06163-0.546-0.3314h-2e-4c-0.8687-1.0703 1.7835-12.946 5.2137-20.747l0.00236-0.0055c1.4028-3.3094 6.2795-13.668 10.835-23.217l8.362-17.18c0.04753-0.09765 0.0579-0.2091 0.0294-0.31384l-3.9125-14.347-0.00128-0.0049-0.0014-0.00513c-2.1612-7.785-5.2437-19.321-6.8225-25.445l-2.4e-4 -8.6e-4c-9.1674-35.28-15.69-46.377-33.783-56.49l-9e-4 -5e-4c-6.6229-3.6803-13.902-5.841-27.524-8.1532h1e-4c-6.6478-1.1566-16.209-2.3118-21.21-2.5571h3e-4l-9.2084-0.48902c-0.0079-3.4e-4 -0.01585-6.1e-4 -0.0238-6.1e-4z"/> <path d="m536.9 820.4c0.84734 0 1.8755 0.3883 3.0585 1.2262l0.00317 0.00217c1.4787 1.0098 1.8085 1.7361 1.5655 4.8533l-4e-5 0.00134c-0.25262 3.5203-1.2304 4.9519-3.0592 4.9519-0.57066 0-1.2422-0.13709-2.0254-0.41602l-0.0046-0.00158c-1.8644-0.61951-2.1726-1.1674-2.4208-4.0321v-3.4e-4c-0.16535-1.8814 0.16325-4.1505 0.63235-5.0989h-1.5e-4c0.54155-1.002 1.305-1.486 2.2508-1.486zm0.29125 53.119c2.2062 0 4.5482 2.36 4.5518 5.9055 0.00275 2.9411-2.2816 5.9953-4.0793 5.9983h-1.2e-4c-2.616-0.0549-4.5351-3.2382-4.47-6.5184 0.02664-1.3406 0.3902-2.6619 1.1597-3.7367l0.0019-0.0028c0.80064-1.1534 1.8227-1.6459 2.836-1.6459zm0.27429 62.962c2.5123 0 4.3125 2.8872 4.3126 6.0983 0 1.4813-0.3903 2.9906-1.2575 4.2429h-2.5e-4c-0.77552 1.0146-1.331 1.398-2.1912 1.398-0.32063 0-0.6867-0.0528-1.1349-0.15915l-5e-3 -9.5e-4c-1.1312-0.24136-2.5595-1.048-3.0126-1.726l-0.01005-0.0139c-1.4201-1.811-1.2816-5.93 0.24805-8.1079l0.0032-0.00465c0.62454-0.9386 2.0489-1.7257 3.0445-1.7267zm-0.34009 61.464c2.2514 0 4.7331 2.3533 4.7361 5.5814 0.00347 3.6144-1.5871 5.5462-3.6491 5.5481h-0.0032c-0.9047 0-1.9401-0.3629-3.0321-1.1621h1e-4c-1.7383-1.2823-2.1296-6.5506-0.57305-8.6609v-1.3e-4c0.03558-0.0482 0.06855-0.0902 0.10575-0.13476l2.7e-4 -1.4e-4c0.68283-0.8166 1.5378-1.1715 2.4153-1.1715zm1.1088 64.625c1.2783 0 2.5538 0.9715 3.6296 3.029h5e-5c1.5272 2.9147-0.03935 7.1879-2.6185 8.5391h-1e-4c-0.51853 0.2717-1.0734 0.423-1.6509 0.4236h-0.00356c-2.4865 0-4.1564-2.594-4.1564-5.5269 0-1.5002 0.44465-3.05 1.4262-4.3069l6e-4 -8e-4c1.1463-1.4818 2.3054-2.1571 3.373-2.1571zm-61.522-328.07-2.1569 0.0021c-1.0946 0.0011-2.2968 0.14744-2.5962 0.3568-0.01306 0.00914-0.02722 0.02013-0.04108 0.0326h-0.00456c-0.33876 0.15294-2.7231 0.53953-5.4237 0.7805l-0.00348 3.7e-4c-24.799 2.595-34.46 4.6799-42.878 9.108l-6.4e-4 2.4e-4c-5.84 3.094-16.393 12.754-20.636 19.007h5e-5c-3.7511 5.4299-7.979 16.333-11.451 29.113l-1.5e-4 6e-4c-1.4038 5.2223-3.225 11.87-4.0502 14.852-4.9419 17.028-8.4581 31.826-7.8442 33.574h-8e-4c0.28266 1.0436 3.9164 9.2588 8.1493 18.832l0.92017 2.081 3e-4 7.4e-4c10.472 23.461 15.16 39.138 12.65 40.259h-6e-5c-0.08258 0.0369-0.17924 0.0576-0.29242 0.05775h-0.00128c-0.93201 0-1.4788-0.9978-4.686-12.769l-2.7e-4 -1e-3c-1.5041-5.4115-7.0848-18.7-23.208-55.09h-6e-5c-1.5787-3.6464-3.4133-7.4752-4.0881-8.5695l-0.00579-0.0089-1.246-1.8238c-0.03573-0.05235-0.09182-0.0874-0.15455-0.09665-0.01103-0.0016-0.02217-0.0025-0.03313-0.0025-0.0516 0-0.10207 0.0176-0.14279 0.05045l-6.3826 5.1494-8.9e-4 7.4e-4c-7.5221 6.1288-28.549 16.746-35.635 18.071l-0.00449 8.4e-4c-2.3841 0.49574-7.5043 0.83217-11.318 0.8356h-3e-5l-6.8854 0.0068c-0.07306 1.4e-4 -0.14163 0.0353-0.18433 0.0946-0.0427 0.05935-0.05423 0.13565-0.03107 0.20486l2.4126 7.2148c0.89287 2.7255 2.8806 8.8748 5.0942 15.723l3.3086 10.232c7.8202 24.296 16.309 47.037 20.807 55.678 8.5875 16.552 26.322 28.203 42.834 28.203h0.03328c11.092-0.0109 25.325-5.6052 33.985-13.363l0.00168-0.0016 4.7243-4.3182c0.04742-0.04336 0.07428-0.10476 0.07402-0.16897l-0.31364-67.774v-1e-4c-0.20148-37.236-0.3989-70.324-0.48514-73.5h-6e-5c-0.06983-4.6417 0.55298-6.848 1.1532-6.8651h0.00676c0.14676 0 0.39997 0.1486 0.73712 0.683h-6e-5c1.534 2.6018 2.0598 21.749 2.1184 82.915-0.02844 57.001-0.18686 65.44-1.5025 74.629l-1.2e-4 0.0011c-1.8119 13.104-6.0176 38.906-10.802 67.115-4.535 26.537-7.0132 43.156-7.0092 47.33 0.00312 3.2177 0.31285 3.4524 9.4017 9.4716h2.8e-4c5.124 3.3816 9.7259 6.3081 10.263 6.4865h-0.00137c0.46347 0.1862 3.9954 1.6613 7.8646 3.3857 3.9084 1.7418 10.302 4.226 14.29 5.6341h-9e-5c7.6509 2.736 30.404 7.9446 38.053 8.7687h-2e-4c9.1157 0.9856 44.49 2.9361 53.639 2.9361h0.06046l9.2909-0.0089c0.11245 0 0.20789-0.0822 0.22461-0.1934l0.41204-2.7381c2.0648-13.716 2.9185-247.01 1.0603-281.6l-0.7603-14.351-0.0522-0.13318-3.2389-3.8961-6.6e-4 -7.4e-4c-2.9778-3.5498-21.412-31.143-25.481-38.186l-0.00606-0.0099c-0.83946-1.2946-1.7744-2.6162-2.2474-2.7422h1.5e-4c-0.03165-0.0084-0.0659-0.01403-0.10275-0.01403h-3.1e-4c-1.6173 0.00158-11.154 8.0938-17.405 14.604l-4.3e-4 6.4e-4c-6.2728 6.5737-9.9678 9.1679-13.017 9.1679-0.4619 0-0.9101-0.05944-1.3528-0.17504l-9.2e-4 -2.5e-4c-2.8057-0.71851-7.5663-6.1912-8.1373-9.516l-0.00159-0.00866c-0.32655-1.5436-0.42187-12.207-0.26665-23.675l5e-5 -6.4e-4 0.22895-20.822c6.6e-4 -0.06066-0.02302-0.11926-0.06586-0.16246-0.04261-0.0431-0.10077-0.0674-0.16144-0.0674z"/> <path d="m351.34 790.26c-0.20291 0.00318-0.31464 0.14917-0.36172 0.26514-0.05044 0.1244-0.06134 0.2805-0.0589 0.4364 0.00638 0.4054 0.1134 1.0554 0.30758 1.9341l1.3e-4 6e-4c0.45085 2.0198 0.24881 2.3281-4.6019 5.5132l-8.6e-4 6e-4c-13.644 9.032-26.866 13.754-40.995 14.759h-5.2e-4c-5.672 0.369-7.6914 0.631-7.6101 1.8826 0.00696 0.10643 0.02964 0.21193 0.06166 0.31553h-4e-5c0.99997 3.4062 6.5732 24.783 6.9896 26.442h-1.5e-4c0.55277 2.547 2.5577 3.2874 9.1234 4.0199h-5e-5c1.8084 0.2063 3.4774 0.32116 5.0809 0.32116 6.7596 0 12.376-2.0368 23.032-7.6792l0.0026-0.00144c8.8799-4.8242 13.462-7.8272 18.045-12.002l0.00101-1e-3 6.0504-5.5638c0.09116-0.08375 0.11734-0.21715 0.06452-0.32925l-3.9067-8.2917-3.1e-4 -5e-4c-0.94305-1.99-2.0202-4.2874-3.1468-6.6896-1.107-2.3604-2.2229-4.7397-3.1464-6.6886-0.3132-0.66087-0.5898-1.242-0.85596-1.7971l-0.00201-0.0043-8e-4 -0.00144h1e-4c-1.9942-4.1239-3.2807-6.5025-3.8651-6.7903h-8e-5c-0.05115-0.0253-0.11742-0.0481-0.19272-0.04934z"/> <path d="m304.41 808c-0.74174 0-1.8863 0.37646-3.5046 1.1252h-3e-5l-2.4871 1.0807 0.00816 0.0414 3.5672 0.0796h-2.2e-4c0.24543 0.00766 0.47852 0.0117 0.69428 0.0117 2.0372 0 2.811-0.3483 2.811-1.1968v-0.0013c-7.2e-4 -0.7565-0.34067-1.1405-1.0887-1.1405z"/> <path d="m578.64 712.18c-0.01176 0-0.02362 0.00157-0.03522 0.00477-0.04484 0.0123-0.08014 0.047-0.09314 0.09155l-3.5554 12.198c-1.9833 6.7175-5.4578 17.757-7.6899 24.474-3.9575 11.744-4.0836 12.411-2.7082 14.47 1.6846 2.6019 13.745 12.141 20.547 16.279l5e-5 1.4e-4c3.3277 2.0213 5.7846 3.0255 7.7161 3.0255 1.4057 0 2.5244-0.5316 3.4857-1.566l0.00238-0.00268c1.2854-1.4595 1.5236-4.1958 1.9189-23.481v-4e-4c0.4724-25.846-0.0953-29.512-5.4829-33.124l-4e-4 -2.4e-4c-1.7331-1.153-5.5457-4.3784-8.5335-7.195l-3e-4 -2.5e-4 -5.48-5.1379c-0.02503-0.02347-0.05787-0.03614-0.09144-0.03614z"/> <path d="m497.02 714.32c-1.5481 0-15.633 12.411-16.211 14.315l-7.9e-4 0.00269c-0.91584 3.2592-2.297 31.982-1.957 40.525 0.25494 6.5485 0.75512 9.8955 1.7675 11.915l0.00208 0.00404c1.3493 2.4801 3.8987 4.1356 6.2026 4.1356 0.43122 0 0.85205-0.05776 1.2571-0.17969l0.00391-0.00122c1.5295-0.51145 13.327-10.592 22.51-19.212l4.8072-4.4012c0.04022-0.03676 0.05406-0.09436 0.03491-0.14551l-2.5782-6.8828c-1.3336-3.8213-5.3243-13.853-8.7324-22.391-3.3178-8.5196-6.1158-15.829-6.1451-16.287 0 0 0-0.00184-1.2e-4 -0.00184-8.6e-4 -0.4641-0.35908-1.0835-0.8092-1.355h-1.3e-4c-0.02081-0.0134-0.0415-0.0222-0.06335-0.0284-0.02985-0.0087-0.06018-0.01173-0.0887-0.01173z"/> </g> <g> <path d="m735.18 789.44-0.135 0.0039q-0.44157 0.0232-1.3255 0.1862l-0.63856 0.1241q-0.20745 0.05324-0.45256 0.131-0.73554 0.23315-1.8102 0.6864l-0.3677 0.1571-0.3872 0.2361q-0.19365 0.118-0.3013 0.2356l-0.85274 1.5842q-0.03803 0.07484 0.09704 0.1582 0.19306 0.0845 0.5035 0.0717 0.3411-0.0109 0.9385-0.1089l2.802-0.9181q0.29389-0.105 0.6355-0.3126l0.67059-0.1978q0.02625-0.01243 0.04935-0.0266 0.06296-0.0327 0.1238-0.12255l0.7328-1.8378q-0.0939-0.05544-0.2822-0.0502"/> <path d="m735.89 788.69-0.2323 0.02244q-0.80863 0.06676-2.6906 0.68956-0.8346 0.3241-1.6598 0.76564-0.85773 0.3269-1.3541 0.47316-0.1741 0.0824-0.3575 0.2186-0.28093 0.30225-0.49395 0.6521-0.17889 0.24903-0.42651 0.9492 0.08796 0.3634 0.24266 0.61807 0.2079 0.29468 0.26955 0.32093 0.10235 0.08654 0.22135 0.14587l6.4884-4.8556h-0.0072"/> </g> <g fill="#916c23"> <path d="m733.31 791.8-0.05713 0.01077q-0.03034 0.0117-0.06244 0.02317h-6e-5l-2.1985 0.72168c-0.0619 0.02025-0.1037 0.0758-0.10835 0.13845h-0.00715c-0.4929 0.967-1.2477 2.2639-2.3063 4.0067l-0.0011 0.0018c-3.2181 5.4578-11.779 23.348-11.778 24.812 0.0019 1.8584 11.42 11.185 18.015 14.804l8.4e-4 3.6e-4c11.309 6.1086 21.314 8.9799 31.743 8.9799 1.6037 0 3.2236-0.06837 4.8531-0.20287h2.6e-4c0.4928-0.03896 0.93943-0.0652 1.3531-0.0896 0.35423-0.0209 0.66803-0.0392 0.97467-0.0635 3.7462-0.2955 4.0383-1.4171 7.5678-13.84 0.2717-0.9562 0.685-2.4102 1.0112-3.5505l0.0028-0.00952 1.9e-4 -7.4e-4c3.3256-11.482 4.1966-14.755 3.0168-15.097h7e-5c-0.0656-0.01904-0.13526-0.0282-0.20563-0.02966h-0.00777l-0.0182-0.00134c-0.22324 1e-3 -0.4853 0.07446-0.76786 0.1764l-0.00519 0.00207c-0.80605 0.32323-4.1869 0.98889-7.6734 1.4072l-0.00294 3.6e-4c-1.6384 0.22814-3.2942 0.34254-4.963 0.34254-6.2366 0-12.697-1.5927-19.422-4.7842h5e-5c-6.988-3.4026-18.365-12.24-19.01-14.81l-3e-4 -0.0011c-0.1316-0.50781-0.05736-1.4447 0.21924-2.7574 0.0098-0.0466-0.00196-0.0952-0.032-0.1322-0.03-0.037-0.07506-0.05847-0.12267-0.05847z"/> </g> <g fill="#493211"> <path d="m538.05 1066.5c-0.56263 0-1.1092 0.4334-1.3898 1.2303-0.52636 1.3584 0.03884 3.3368 0.96484 3.6957 0.0964 0.0375 0.194 0.0569 0.2974 0.0569h7e-4c0.7882-6e-4 1.556-1.8615 1.5548-3.1896-3.6e-4 -0.3889-0.0661-0.7366-0.21807-0.9832-0.32933-0.5479-0.77193-0.8101-1.2099-0.8101z"/> <path d="m537.43 1001.2c-0.2229 0-0.45165 0.0922-0.66955 0.29055l-6e-4 7.5e-4c-0.79427 0.7955-0.64504 2.5772 0.0711 3.292 0.1915 0.19113 0.42437 0.3072 0.6917 0.3072h9e-4c0.6786-4.7e-4 1.263-0.76096 1.2622-1.5965-0.00122-1.3327-0.63299-2.294-1.3557-2.294z"/> <path d="m537.2 938.73c-0.1888 0-0.3373 0.35315-0.5783 0.99755h-1e-4c-0.7004 1.7177-0.2314 4.8449 0.6722 5.2134 0.05735 0.0234 0.11784 0.036 0.17875 0.036h4.9e-4c0.51486-5e-4 0.93006-0.85 1.0942-1.8411 0.16555-0.99939-0.085-2.4957-0.58574-3.3288-0.37516-0.7072-0.58972-1.077-0.78146-1.077z"/> <path d="m537.44 876.8c-0.67719 0-1.1931 1.0856-1.193 2.2549 0 0.43091 0.06956 0.87684 0.22746 1.2903l1.8e-4 3.6e-4c0.2389 0.5957 0.58789 0.8693 0.94276 0.8693 0.6348 0 1.251-0.8709 1.251-2.202v-0.00405c-8e-4 -0.832-0.4173-1.8365-0.8411-2.0902l-0.0013-7e-4 -4e-4 -2.7e-4h6e-5c-0.13092-0.0802-0.26032-0.11753-0.38562-0.11753z"/> <path d="m537.54 823.75c-0.3908 0-0.61974 0.707-0.6197 1.6697v0.00564c0.00106 1.1543 0.41384 2.1754 0.8507 2.1754h3.3e-4c0.51817-5e-4 0.84817-0.7694 0.84741-1.5961v-2e-4c-8.4e-4 -0.9114-0.33209-1.9162-0.8399-2.1723h-3.4e-4c-0.0831-0.05517-0.16244-0.08213-0.2385-0.08213z"/> </g> <g fill="#1f1405"> <path d="m584.13 1591.4c-0.9952 0.0011-2.4164 3.7979-3.4668 8.4239l-5.6e-4 0.0023c-1.0775 5.0798-1.0635 22.03 0.11056 26.208l3.4e-4 0.0015c1.2566 4.3407 5.6959 8.818 8.9527 8.818h0.01032c4.5569 0 28.085 4.2004 41.689 7.4214h2.5e-4c19.717 4.7055 24.012 5.2706 44.483 5.2707-0.01154 0 1.0823-6e-4 1.1776-6e-4h0.00653c1.8173 7e-3 3.8567 0.0121 5.3297 0.0121 12.321 0 15.21-0.267 18.613-1.4542h6e-5c8.0684-2.8218 10.707-6.3489 8.6132-12.337-0.2585-0.7389-0.5877-1.5125-0.9869-2.3275h7e-5c-3.5188-7.1881-14.202-14.749-37.924-26.914l-6.4e-4 -3e-4 -10.125-5.1335c-0.02285-0.0116-0.04775-0.0173-0.07265-0.0173-0.02556 0-0.05107 0.0061-0.0744 0.0182l-6.0528 3.158h-5.6e-4c-3.3368 1.7564-8.2692 4.3107-11.026 5.7342-3.9059 1.9959-5.5178 2.4901-9.6797 2.4901-0.33556 0-0.6568-3e-3 -1.0258-0.0087h-9.8e-4c-7.5886-0.0754-12.703-1.8771-32.211-11.566h1.8e-4c-8.5092-4.2443-15.782-7.7125-16.299-7.7956l-8.3e-4 -3e-4c-0.00997-0.0015-0.02411-0.0032-0.03867-0.0032z"/> <path d="m502.05 1590.4c-0.73707 0-3.6396 1.3871-6.7597 3.2936h-2.3e-4c-7.7062 4.6505-26.431 13.785-31.723 15.527l-0.00255 9e-4c-2.1329 0.741-6.6739 1.3249-9.9837 1.3281h-1.2e-4c-0.05482 4e-4 -0.08862 4e-4 -0.1087 4e-4h-0.13104c-5.6297 0-6.3847-0.2168-16.365-5.3585-5.7006-2.9672-11.142-5.3988-11.942-5.3988h-4.3e-4c-1.8069 0.0017-30.382 16.585-37.817 21.884l-3e-4 2e-4c-8.114 5.8074-13.045 14.357-10.649 18.881l8e-4 0.0017c2.7046 4.9754 12.809 7.6883 28.879 7.6883h0.13791c18.179-0.0175 30.55-1.441 46.737-5.4418h5.7e-4c16.581-4.1624 24.789-5.7454 37.636-7.4159h2.4e-4c10.215-1.3386 12.526-2.5122 15.13-7.7337h1.3e-4l4.2e-4 -8e-4v-2e-4c1.4274-2.8616 1.6709-4.8925 1.5789-14.508-0.09186-9.2956-0.42633-12.136-1.9322-16.638l-0.0013-0.0037c-1.0753-2.969-2.1664-5.6564-2.4341-6.0125l-0.1283-0.0641 0.09552 0.0318c-0.02575-0.0191-0.052-0.0314-0.07885-0.0404h-7e-5c-0.04603-0.0151-0.09448-0.0197-0.14019-0.0197z"/> </g> <g fill="#f8b988"> <path d="m531.91 594.06c0.3436 0 0.6464 0.0029 0.9924 0.00926h7.5e-4c5.5912 0.16164 6.6338 0.42174 7.489 1.8182l0.00595 9e-3c0.5642 0.8042 0.62595 0.9921 0.47075 1.101-0.39464 0.27684-1.8683 0.28807-5.5542 0.2916-7.1592 0.0067-15.23 1.845-21.308 4.8496-1.7203 0.8302-2.9564 1.2142-3.6572 1.2142-0.46967 0-0.59668-0.15785-0.59668-0.3739 0-0.41321 0.43256-1.1804 1.468-2.307h-6e-5c2.537-2.7057 4.2419-3.5262 10.204-5.2713l0.00245-7.5e-4c2.9584-0.91335 6.6236-1.34 10.483-1.34zm51.119 3.8603c4.7549 0 9.6015 2.2119 13.056 5.8241h-6e-5c3.1212 3.362 5.3514 8.2807 4.4405 9.1266-0.02316 0.0214-0.0496 0.0408-0.07785 0.0568l-0.01111 0.0068c-0.36624 0.24464-0.66464 0.3334-0.82594 0.3334-0.01634 0-0.0298-8.6e-4 -0.0407-0.0021h-0.00586c-4.9928-7.2858-11.41-11.542-17.612-11.542h-0.05908c-3.0182 0-3.9284-0.3031-3.9284-1.016 0-0.3074 0.1539-0.7252 0.4727-1.2955l0.00574-0.01136c0.52816-1.1348 1.5692-1.4781 4.5709-1.4811zm-53.66 15.242c0.1263 0 0.2404 0.02074 0.33864 0.05994l0.00946 0.00354c0.738 0.24526 1.6794 0.50452 2.045 0.50452h0.0019c1.5851 0 3.9778 3.6587 3.9802 6.2113 0.0033 3.4721-2.4058 5.8857-5.8776 5.889h-0.00993c-4.0463 0-6.3306-2.3732-6.3306-5.261 0-1.7107 0.79844-3.6316 2.5506-5.3884 1.3485-1.2799 2.5242-2.0189 3.2923-2.0189zm50.875 4.6809c2.8009 0 5.2735 2.3348 5.2772 6.1987 0.00395 4.1268-1.8169 5.885-6.2094 5.8893h-0.01337c-4.1486 0-6.316-1.8301-6.316-4.3605 0-1.5998 0.85687-3.5322 2.7121-5.5489h-4e-5c1.4176-1.5055 3.0428-2.1786 4.5495-2.1786zm-17.357 4.1528c0.5479 0 0.9932 0.05774 1.1576 0.1056h-0.00547c0.04276 0.8296 0.36234 6.0061 0.75376 12.174 0.50674 9.2908 1.0917 13.129 2.5152 16.97l5e-4 0.0013c1.856 4.8858 1.747 5.8474-1.7322 7.1691-0.4071 0.1545-0.8834 0.321-1.389 0.4901h5e-5c-1.8142 0.5768-4.3324 0.8937-6.2637 0.8937-1.7845 0-2.7168-0.277-2.7171-0.5556h1.2e-4c0.1073-0.6848 6.7695-3.235 9.1983-3.2374 0.80504-7e-4 1.3551-0.1631 1.3545-0.8408-3.1e-4 -0.24135-0.07356-0.5358-0.19843-0.88405l-0.00393-0.01001c-2.9808-6.9371-3.73-11.557-3.7398-21.746-0.0087-9.1374 0.2105-10.529 1.0618-10.53zm-15.827 55.084c6.2707 1.3e-4 13.345 0.57887 18.242 1.6513l3.4e-4 1.4e-4c5.6413 1.2237 7.6018 2.2844 7.3725 3.3416-0.03976 0.18325-0.14566 0.38365-0.32976 0.60265l-0.00154 0.00185c-0.32056 0.39255-0.68296 0.58225-1.3521 0.58225-0.7551 0-1.8718-0.2419-3.6962-0.718h-2.5e-4c-6.22-1.6486-13.222-2.5524-19.155-2.5524-2.7137 0-5.2072 0.18896-7.3032 0.58386h-1e-4l-0.2437 0.04236c-5.9218 1.0299-8.72 1.5117-10.044 1.5117-1.0159 0-1.0378-0.25674-1.0383-0.793-0.00156-1.5743 0.54215-1.9734 6.7472-3.405 2.5533-0.5739 6.4778-0.8494 10.801-0.8494zm19.07-125.7c-0.0618 0-0.11914 0.0332-0.14984 0.08706l-3.3126 5.81-2e-4 4e-4c-4.7928 8.4474-12.643 16.553-18.82 19.525-5.6183 2.6502-14.888 5.2268-24.583 6.728h2e-4c-3.403 0.50147-7.3942 1.3362-8.8142 1.7556l-0.00434 0.00135c-2.9172 0.9464-3.3619 1.8134-10.375 18.773l-9.3e-4 0.0021c-1.819 4.5599-4.5439 9.6866-5.8536 11.327-1.7547 2.1194-3.1914 3.0414-5.7888 3.0414-1.538 0-3.4847-0.32384-6.1474-0.9332l-0.00464-0.0011-0.0011-1.3e-4h-1.2e-4c-1.196-0.26037-2.3591-0.38721-3.4694-0.38721-3.8633 0-7.0904 1.5415-8.7372 4.3801-1.9304 3.2823-3.4955 14.525-2.7404 19.444l1.8e-4 7.4e-4c0.84882 5.3986 5.6525 9.9917 13.477 12.98l0.00116 4e-4 5.8975 2.205 2.6364 7.966 1.3e-4 2.6e-4c6.9183 20.772 16.332 32 34.552 41.13l6.1e-4 2e-4c8.0843 4.0089 14.118 5.9335 20.581 5.9335 4.8946 0 10.024-1.1034 16.467-3.2218l5.7e-4 -2.6e-4c23.014-7.6683 31.348-15.426 38.234-35.649 3.9761-11.55 5.3821-18.367 7.0271-34.057l1e-4 -0.0011c1.2258-12.461 1.7205-41.887 0.5074-43.504-1.1036-1.5249-10.437-8.4211-17.646-13.051l-0.00104-7.3e-4c-5.8751-3.7156-7.7675-5.5231-11.408-10.808l-2.7e-4 -2.4e-4c-2.405-3.4757-5.9751-9.2753-7.8827-12.834l-3.4904-6.5502c-0.02956-0.0554-0.08696-0.0904-0.14972-0.0913z"/> <path d="m505.68 698.28c-0.78112 0-1.1476 1.4437-2.2048 5.6895h-7e-5c-0.57745 2.0686-1.5649 4.7054-2.2165 5.8484h-6e-5c-1.1976 1.9728-1.1755 2.703 0.07385 7.0186h-1.3e-4c0.75275 2.6658 3.0853 8.6454 5.1633 13.454 1.9962 4.811 5.6518 13.842 7.9798 20.06 3.332 8.97 6.2473 14.619 13.811 26.977h-6e-5c7.0655 11.665 8.9642 14.737 10.218 14.737 0.40384 0 0.71448-0.29507 1.0171-0.616h-5e-5c4.2374-4.4121 16.177-21.36 18.588-26.442 3.4006-7.0671 12.008-31.808 14.902-42.85 1.1572-4.3981 2.153-9.8109 2.1509-11.992-0.00232-2.4513-0.05036-3.6254-0.87249-3.6254-0.22773 0-0.49213 0.09802-0.78617 0.23559h-1e-4c-7.8713 3.4051-24.262 7.8048-29.286 7.8097h-0.02654c-8.9911 0-20.645-4.3647-31.327-11.636-1.858-1.2878-3.7056-2.5258-4.9537-3.3622-0.66577-0.44607-1.1415-0.76453-1.4144-0.95374h-1e-4c-0.03132-0.02173-0.08533-0.05957-0.10444-0.07323l-0.00989-0.0066c-0.23681-0.1454-0.47241-0.27246-0.70227-0.27246z"/> <path d="m263.17 722.17c-1.8945 0-3.0431 0.7732-3.744 2.3193h-1.3e-4c-0.69853 1.4899-0.50317 2.7207 0.50422 4.8141 1.115 2.3939 3.0142 3.7477 10.052 7.2993 4.7369 2.4042 9.6131 5.1274 10.757 6.0243 2.0863 1.6359 2.6053 4.3129 1.493 5.7314h-3e-5c-0.09781 0.12466-0.2081 0.23999-0.33169 0.34536h-3.1e-4c-1.5478 1.1948-19.011 3.5373-27.078 3.6286h-0.03589c-3.8959 0-11.073-0.57154-16.11-1.3097l-0.00195-2.5e-4c-7.4424-1.0161-13.198-1.54-16.826-1.54-2.6815 0-4.555 0.26734-4.555 1.177v3.6e-4 2.7e-4c3e-5 0.0538 0.01321 0.1031 0.03293 0.14646l9e-5 2.4e-4c0.24502 0.5364 2.3264 1.0714 4.5376 1.3743h6e-5c2.3117 0.32785 9.6914 1.8956 16.329 3.3824h5e-5c8.1165 1.8968 14.014 2.8079 18.432 2.8079h0.08332c6.6462-1.4e-4 10.367 1.2031 10.368 2.6935 3.7e-4 0.37754-1.7515 0.72214-5.0947 0.72534h-0.05036c-5.8853 1e-4 -15.302-0.9729-21.153-2.4698l-0.00125-3.6e-4c-4.3196-1.0754-12.627-2.6458-18.439-3.3876h-6.1e-4c-4.9935-0.7085-7.6902-1.0613-9.3949-1.0613-1.6894 0-2.4268 0.34776-3.4364 1.0222h-9e-5c-2.5241 1.6578-2.6592 3.1173-0.89022 6.5628l6.7e-4 0.00134c1.4278 2.7305 2.765 3.8718 5.887 3.8718 1.2952 0 2.8995-0.19507 4.9441-0.54197h-3e-5c2.1444-0.3543 3.5939-0.55667 5.0193-0.55667 2.2679 0 4.485 0.51233 9.3329 1.7832l0.00284 7.3e-4 0.00791 0.00193h-1.6e-4c11.634 2.968 18.213 4.4829 23.362 4.4829 5.326-1.5e-4 9.1139-1.621 15.344-4.8702 9.5267-4.9301 15.624-7.1519 21.87-7.1519 3.753 0 7.5717 0.80246 12.233 2.3201h-3e-5c5.3572 1.7526 7.7462 3.457 7.748 5.278 4.5e-4 0.45594-0.19583 0.64024-0.60453 0.64064h-0.00122c-0.14724 0-0.32431-0.0254-0.53146-0.0802h-0.00299c-0.38831-0.15456-1.3264-0.48-2.5471-0.9036-1.4636-0.5078-3.3208-1.1522-5.1713-1.8272l-0.0028-9.5e-4c-4.1556-1.4466-6.2897-1.908-9.5774-1.908-0.85656 0-1.7925 0.03126-2.8602 0.084l-0.00521 3.7e-4c-5.599 0.42333-7.2033 0.9375-17.408 6.1766h-8e-5c-10.114 5.1439-11.119 5.6514-16.013 5.6515-0.56574 0-1.1973-0.00705-1.8889-0.015h-0.03094c-4.2056 0-10.066-0.90196-16.103-2.3015h3e-5c-11.91-2.9047-15.48-3.7344-18.152-3.7344-0.97494 0-1.8317 0.1106-2.9149 0.2665l-0.00579 1e-3 -0.00123 1e-4h-1.2e-4c-2.8757 0.4823-4.0997 0.90686-3.8927 2.1414l7e-4 0.00391c0.52924 2.8076 5.2943 4.9059 21.965 10.005h9e-5c19.509 5.9568 25.329 7.1985 40.692 9.0104h3e-5c14.684 1.7281 18.935 3.1301 23.615 7.8012 2.1479 2.1437 4.2833 5.2672 4.8519 7.0488l8.5e-4 0.00256c0.57834 1.7291 1.3369 3.593 1.6965 4.042l0.0148 0.0165c0.21434 0.214 0.67568 0.27137 1.2035 0.27137 3.2146 0 12.345-2.285 17.594-4.5609h7e-5c9.1927-3.9502 19.689-10.319 19.687-12.065-0.00386-4.0382-8.8434-27.627-13.085-34.764-3.1736-5.4166-9.8381-12.317-15.425-15.896h-5e-5c-6.0865-3.9939-12.169-6.4001-30.008-11.941h1.5e-4c-7.7979-2.4801-16.674-5.3744-19.658-6.4484-2.881-1.0726-5.0247-1.624-6.6276-1.624z"/> <path d="m827.22 724.42c-1.7302 0-3.9216 0.8618-8.0678 2.859l-0.0024 0.0012c-3.1367 1.5722-9.0933 3.6472-13.229 4.5612l-6e-4 1e-4c-4.0529 0.91394-11.293 2.5856-16.092 3.7489h1e-4c-18.445 4.3396-33.745 14.663-41.31 27.911l-5e-4 9.5e-4c-3.316 5.8994-11.271 24.589-12.185 29.012h-1e-4c-0.44 1.9489 0.3494 2.8517 5.1276 6.6341l0.0025 0.0019c3.165 2.4106 9.0659 6.0594 13.225 8.1339h-1e-4c6.7383 3.4026 8.2544 3.9074 14.672 4.2344l0.0018 1.3e-4 0.00545 1.2e-4 0.00535 2.5e-4h-1e-3c1.6013 0.0967 2.8921 0.17444 3.9698 0.17444 4.4578 0 5.2926-1.3696 9.2724-7.8172l9e-4 -0.00137c4.014-6.6495 7.7529-8.3053 22.676-9.978h3e-5c15.604-1.758 25.568-3.844 42.327-8.8391h-1.9e-4l0.00755-0.0021 0.00136-3.5e-4c16.646-4.9037 20.912-6.4099 23.427-8.1738 1.7325-1.2099 2.3684-2.5504 1.6348-3.6008-0.4084-0.58484-1.2179-1.0214-2.3647-1.2682l-0.00374-7e-4c-1.4144-0.2715-2.6591-0.4263-3.9644-0.4263-3.0757 0-6.4797 0.85877-13.289 3.0192l-0.0015 6.3e-4c-8.3632 2.7416-10.75 3.154-17.531 3.1605l-7.8404 0.0076-10.753-5.3637-0.0016-8.3e-4 -0.0055-0.00267c-10.542-5.3002-10.903-5.395-18.317-5.6378h-4.9e-4c-1.1148-0.04734-2.1363-0.0727-3.1089-0.07285-4.0341 0-7.1012 0.44155-11.457 1.5854l-3.1e-4 1.2e-4 -0.00738 0.00194h-1.2e-4c-6.2952 1.6602-9.2658 2.3467-10.58 2.3467-0.72052 0-0.81005-0.19495-0.8103-0.43055-0.0014-1.4895 4.9276-3.968 11.226-5.4023h-7e-5c3.1959-0.72057 6.811-1.0818 11.211-1.0818 1.1709 0 2.3872 0.02525 3.6758 0.0763h0.00224l8.9229 0.23923 11.835 5.6969-1.7e-4 -1.5e-4 0.01217 0.00585 1.6e-4 1.3e-4c8.9867 4.3189 11.315 5.397 14.196 5.397 0.74936 0 1.5319-0.0724 2.475-0.17627h-0.00193c2.6775-0.16967 9.082-1.7584 14.224-3.4225h-1.4e-4c8.0104-2.579 12.162-3.5938 15.889-3.5938 1.4439 0 2.8268 0.15226 4.3491 0.42766h-5e-4l0.0052 0.0011 3.5e-4 1.3e-4c1.364 0.28272 2.3109 0.46327 3.067 0.46327 1.4802 0 2.235-0.69545 3.9627-2.4267 2.9502-2.9558 3.571-5.881 1.5903-7.858h-4e-5c-0.25295-0.25246-0.5445-0.48536-0.8779-0.70081-0.8928-0.59411-1.5879-0.89695-2.9488-0.89695-1.3434 0-3.3536 0.29564-6.8794 0.88l-0.0014 2e-4c-4.3189 0.7516-12.864 2.5852-19.006 4.1687h-6e-5c-8.3599 2.0844-16.52 3.2539-21.374 3.2539-2.3504 0-3.8259-0.27869-4.2488-0.76784-0.62702-0.75084-0.6698-1.1628-0.297-1.4741h5e-5c0.78364-0.6542 3.371-1.0048 8.7991-1.3232h3.5e-4c6.3216-0.33899 11.725-1.3424 20.606-3.8418h-2e-4l0.00514-0.00146h1.6e-4c5.032-1.4065 9.8463-2.673 12.193-3.2903 0.70033-0.1842 1.1691-0.3075 1.3917-0.3683h-0.0014c0.66192-0.13304 1.1377-0.2218 1.2966-0.3557l1.8e-4 -1e-4c0.05469-0.04616 0.112-0.12807 0.09035-0.23646l-1e-4 -4.9e-4c-0.00956-0.04725-0.03214-0.08545-0.055-0.11415-0.13004-0.1643-0.58347-0.3473-1.2176-0.61364l-6e-4 -3.6e-4c-0.41-0.1704-1.297-0.2411-2.4674-0.2411-1.9759 0-4.8733 0.2047-7.9871 0.57105l-0.00165 2.5e-4c-8.4211 1.0715-14.458 1.5942-19.726 1.5942-4.9989 0-9.3149-0.47154-14.316-1.3943l-0.0017-2.5e-4c-5.2127-0.90515-10.444-1.8136-11.628-1.8983h-3e-4c-1.5537-0.15406-2.0088-0.645-2.1722-2.6621l-2.4e-4 -0.0039c-0.32001-3.0917 0.76824-4.1215 10.515-8.8814l5.3e-4 -2e-4c9.5911-4.724 12.532-7.2581 12.528-11.116-0.00176-1.8512-0.5091-3.0922-1.6694-3.7157l-0.00466-0.0023c-0.88409-0.44093-1.6782-0.693-2.6161-0.693z"/> </g> <g fill="#fee2c4"> <path d="m539.75 517.44c-3.0095 0-6.0996 0.301-9.3655 0.89806l-0.00124 2.4e-4c-27.091 5.0957-46.484 17.923-56.298 37.431-1.4136 2.7507-4.4795 9.8967-6.9609 15.951l-6.8e-4 2e-3c-9.2629 23.138-11.402 26.76-22.562 38.769-7.799 8.3127-11.814 14.912-12.9 20.874-1.1631 6.099-0.57045 14.434 1.2703 20.52 1.2416 4.207 1.654 7.3294 1.4109 11.028l-1.3e-4 0.00354c-0.24109 4.6653-0.62842 5.6157-4.5042 10.821l-0.00128 0.00174c-5.8953 8.0703-7.0824 10.77-7.5789 17.221l-3.8e-4 0.0045c-0.24596 4.2515 0.00593 6.6934 1.1019 9.7191l0.0018 0.0049c3.5248 9.1218 7.3267 12.477 19.239 16.88l4.3e-4 1.4e-4c6.2809 2.3073 16.632 8.256 21.926 12.549l0.00227 0.00185c2.4476 1.9374 3.7495 2.3683 7.6504 2.3683h0.05238c4.6423-0.00439 5.0091-0.08459 5.5447-2.6852 0.6391-2.8887 7.4362-10.474 14.914-16.634 5.6149-4.5343 5.9632-5.2605 9.1912-17.391l0.00244-0.01c0.19493-0.88113-1.1541-3.3897-2.8689-5.6717l-7.9e-4 -0.0011c-5.4607-7.1839-11.182-19.259-13.423-28.268-0.57342-2.3653-1.3531-3.6684-2.5619-3.6684h-0.00367c-2.7256 0-11.29-4.7448-14.007-7.7842-4.103-4.6686-5.0902-7.8394-5.0976-15.596-0.00885-9.1968 1.3157-14.003 4.6384-17.25l0.0022-0.0022c2.5466-2.5515 6.6135-4.0181 10.586-4.0181 1.0885 0 2.1689 0.11034 3.2049 0.33764h-2.5e-4c2.2864 0.54616 4.0541 0.8407 5.4906 0.8407 2.5147 0 4.0001-0.90624 5.4543-2.8476h-5e-5c1.187-1.5294 4.4273-8.6211 7.1536-15.829 3.3267-8.5069 5.6921-13.275 6.5961-13.818h-3e-4c0.86658-0.47385 5.9495-1.5506 11.285-2.473h-1.4e-4c11.615-1.9196 19.943-4.2553 25.37-7.2673h-4e-5c7.7832-4.194 15.352-14.217 20.492-27.104 0.511-1.2807 1.195-2.0708 1.504-2.0875h0.00549c0.38036 0.08814 1.6944 2.0176 2.8555 4.5818 2.9981 6.6451 10.735 19.93 13.824 23.846l0.0021 0.00253c1.4374 1.7719 6.1974 5.6008 10.514 8.5005l0.00193 0.00136c11.492 7.562 16.148 11.001 17.024 12.511l4e-4 7e-4c1.1114 1.901 0.9997 31.91-0.32255 42.319l-1.8e-4 0.00124c-4.5264 37.164-10.974 53.752-24.981 64.649h-5e-5c-4.0034 3.0292-6.5595 5.604-6.5584 6.7524 0.00156 1.6441 2.9957 4.4845 15.034 14.442h-5e-5c3.8936 3.2244 5.677 5.4271 6.486 7.7662l0.00156 0.0044 1.2477 3.4c0.03534 0.09646 0.1271 0.15993 0.22895 0.15993 0.00455 0 0.00915-1.3e-4 0.01385-3.6e-4l7.4656-0.42197 0.0023-1.5e-4c6.4114-0.42261 8.4358-0.92825 13.031-3.2732 2.9836-1.4954 9.6976-4.8188 14.919-7.3112 16.378-7.668 22.11-14.875 22.015-27.452-0.00596-6.1947-0.27506-6.9823-4.8525-15.949-3.4038-6.7912-4.8867-10.826-5.4656-14.603-0.00215-0.0155-0.00185-0.01345-0.00395-0.0291l-1.4e-4 -8e-4c-0.73401-5.3436-0.74596-5.2988 2.8647-22.065l0.10115-0.4695c0.83103-3.8411 1.159-8.591 0.9881-13.251l-2e-4 -0.0043c-0.33924-6.2507-0.763-8.0245-3.3551-13.363l-0.0023-0.00465c-1.9236-3.7549-5.5925-8.9121-9.6706-13.481-8.0275-9.0029-11.919-16.019-17.569-32.336l-1e-4 -1.5e-4c-6.0753-17.506-8.9981-23.103-15.679-30.022l-7.7e-4 -8.5e-4c-6.0011-6.1558-12.504-10.566-20.17-13.724l-0.00174-7.4e-4c-3.4918-1.4075-5.4827-1.7628-11.43-1.7628-0.7771 0-1.5971 0.00597-2.5188 0.01634h-0.0022c-1.4752 0.0304-2.7468 0.05056-3.8469 0.05056-5.188 0-6.9627-0.43935-12.076-2.3424l-0.0022-7.6e-4c-5.469-1.9781-10.633-2.9582-16.065-2.9582z"/> </g> <g fill="#d17d43"> <path d="m551.82 581.06v8.6e-4l-1.1893-1.0393c3.4672-0.46864 7.0127-0.94875 10.694-0.9486 0.34314-1.5e-4 0.6862 4e-3 1.0324 0.0127h-5e-5c4.0504 0.102 8.2476 0.82944 12.352 1.5387 0.5708 0.09863 0.95343 0.64113 0.8548 1.2118-0.09864 0.5708-0.64114 0.95364-1.2119 0.85498-4.135-0.7146-8.1784-1.4114-12.047-1.5086-0.32404-0.0082-0.6569-0.01223-0.9795-0.01223-3.5171 0-6.9264 0.45849-10.413 0.92983-0.2999 0.0405-0.6027-0.05056-0.8306-0.24966-0.2279-0.19924-0.35855-0.48704-0.35855-0.78964v-9e-4c0-0.5791 0.46945-1.0486 1.0486-1.0486 0.57916 0 1.0488 0.46947 1.0488 1.0487z"/> <path d="m551.71 585.24v9e-4l-0.81421-0.7117c3.4702-0.469 6.9941-0.94567 10.65-0.94567 0.3461 0 0.6751 0.00403 1.0241 0.01282l-1.4e-4 -1.5e-4c4.0206 0.10135 8.1959 0.8241 12.304 1.534 0.39081 0.06764 0.65271 0.43894 0.58527 0.82974-0.0675 0.39097-0.439 0.6529-0.82984 0.5854-4.1304-0.7137-8.1976-1.4153-12.095-1.5134h-1.3e-4c-0.3324-0.0084-0.65717-0.0122-0.98777-0.0122-3.5432 0-6.9738 0.4618-10.457 0.9327-0.20547 0.02774-0.4128-0.03464-0.56875-0.171-0.15605-0.1362-0.2456-0.33337-0.2456-0.54064v-8.6e-4c0-0.3965 0.32145-0.7179 0.71801-0.7179 0.39654 0 0.71808 0.32154 0.71808 0.718z"/> <path d="m523.13 635.74v1e-4l-0.9129-1.2666 0.0028 1e-3 -7.5e-4 -2.5e-4c2.3026 0.76599 4.4372 1.4704 6.4518 1.7l0.06837 0.0095 0.00103 1.5e-4 -0.06843-0.00955c0.7273 0.0829 1.422 0.10086 2.084 0.04006 2.515-0.23071 4.8837-1.6068 7.5773-3.2029 0.63424-0.3759 1.4532-0.1664 1.829 0.4679 0.3759 0.63426 0.16645 1.4532-0.4679 1.8291-2.5721 1.5242-5.4703 3.2689-8.6944 3.5647h-5e-5c-0.87806 0.08054-1.7581 0.0532-2.6299-0.04604l-0.0685-0.00952-0.0011-2.4e-4 0.0683 0.0095c-2.3425-0.26695-4.7525-1.0741-6.9922-1.8191l-7.9e-4 -2e-4 -0.00275-1e-3c-0.5448-0.1813-0.91284-0.69165-0.9128-1.2665v-1e-4c-4e-5 -0.7373 0.5976-1.335 1.3349-1.335 0.73726-1.4e-4 1.3349 0.59766 1.335 1.335z"/> <path d="m574.16 638.18-0.85791-1.1902 0.00262 8.4e-4 -7.6e-4 -1.4e-4c2.1639 0.71975 4.1698 1.3817 6.0628 1.5976l0.06421 0.00892 0.00106 1.3e-4 -0.06435-0.0089c0.68341 0.07774 1.3364 0.0947 1.9583 0.0376 2.3634-0.21694 4.5892-1.5099 7.1204-3.0098 0.596-0.35314 1.3655-0.15636 1.7189 0.4398 0.35304 0.596 0.15618 1.3655-0.43982 1.7187-2.417 1.4323-5.1404 3.0718-8.1701 3.35-0.82516 0.07557-1.6522 0.04981-2.4713-0.04343l-0.0644-0.00894-0.00109-2.6e-4 0.06423 0.0089c-2.2013-0.2507-4.466-1.0092-6.5708-1.7094l-6.8e-4 -2.6e-4 -0.00262-8.4e-4c-0.51184-0.17016-0.85774-0.65003-0.85774-1.1902 1e-4 -0.6929 0.5616-1.2545 1.2545-1.2545 0.69269-1.3e-4 1.2546 0.56174 1.2546 1.2545z"/> </g> <g fill="#f8b988"> <path d="m586.09 1560.5c-0.11285 0-0.20725 0.0872-0.21595 0.2002l-0.9832 12.776v-3e-4l-0.98334 12.693c-0.00546 0.0711 0.02444 0.1406 0.08008 0.1855l2.1585 1.7401c4.9339 4.0873 25.462 13.948 37.91 18.25h5e-5c3.5872 1.2621 6.0802 2.0356 8.6294 2.0356 4.456 0 9.0418-2.3665 19.992-8.3817l5.0576-2.7424c0.06121-0.0332 0.10275-0.0938 0.11169-0.163 0.00886-0.0691-0.01599-0.1381-0.06684-0.1858l-3.9855-3.7292-8.3e-4 -8e-4c-5.6805-5.2588-8.6589-11.839-10.158-22.425l-4.6e-4 -0.0032c-0.27163-1.7396-0.51876-3.3962-0.73544-4.8478-0.16246-1.0888-0.31219-2.0913-0.43066-2.8497-0.14545-0.931-0.26-1.6083-0.3334-1.843h-0.0031c-0.0059-0.0353-0.0162-0.0689-0.03-0.1005l-3e-4 -7e-4c-0.1804-0.409-1.0018-0.5097-1.9721-0.5097-0.86303 0-2.0113 0.0889-3.3832 0.2708h-2e-4c-1.5665 0.191-6.3779 0.3042-12.608 0.3042-4.5766 0-9.8879-0.0608-15.231-0.1964h-9.1e-4l-22.813-0.4759z"/> <path d="m500.06 1560.8-56.077 0.3858c-0.10634 7e-4 -0.19647 0.0785-0.2127 0.1835l-0.57704 3.7336-5.4e-4 0.0036c-2.057 14.998-5.1083 22.322-11.849 28.417l-3.3982 3.0726c-0.0549 0.0497-0.08069 0.1239-0.06833 0.1969 0.01233 0.0731 0.06107 0.1348 0.12924 0.1636l2.7386 1.1589 0.0097 0.0038c1.5518 0.5701 5.3532 2.7119 8.6782 4.7026 6.3266 3.961 9.775 5.4539 13.616 5.4539 1.2963 0 2.6314-0.1701 4.1287-0.4668l0.00433-1e-3c2.6707-0.5869 7.2352-2.0029 10.152-3.1725h3.7e-4c9.2848-3.7408 28.47-13.477 31.399-15.909l0.00196-0.0016 2.7354-2.3255c0.05115-0.0434 0.07922-0.1082 0.07611-0.1753l-0.59277-12.608-7e-5 -0.0013-0.67578-12.609c-0.00616-0.115-0.10119-0.2051-0.21624-0.2051z"/> </g> <g fill="#fee2c4"> <path d="m299.49 522.16q-0.08478 0.03101-0.16938 0.06235l-0.18884 0.06973q-9.2522 3.4163-16.465 8.8692-7.2826 5.264-11.84 12.097-4.3689 6.7627-5.4465 14.885-0.8887 8.0526 2.458 17.116l32.105-3.7015q-1.8128-4.9097 0.6388-9.8917 2.4516-4.982 8.1163-7.0735 0.02332-0.00876 0.0467-0.01736 4.8859-1.7877 9.7547-0.1688 4.6333 1.5074 6.446 6.4169 1.255 3.3986-0.32226 7.8431-1.3885 4.375-7.3172 12.143-2.9397 3.6604-5.0341 7.8667-1.9752 3.9478-2.896 9.0084-0.8017 4.8019-0.17126 10.577 0.63073 5.7752 3.2105 12.761l2.0916 5.6644 26.057-9.6218q-0.76693-2.077-1.2754-4.0349-0.94702-3.727-0.58118-6.2224 1.3275-6.2833 3.8489-11.077 2.5214-4.7932 5.2519-9.0199 2.8003-4.038 5.4118-8.0061 2.6812-3.7795 4.1888-8.413 1.3188-4.5637 1.1357-10.289-0.11348-5.5371-2.9721-13.279-3.3468-9.0634-9.2759-15.242-5.6707-6.0595-13.287-9.2547-7.3583-3.0762-16.027-3.3086-8.5183-0.043-17.493 3.241zm47.489 112.28-25.868 9.5521 9.6217 26.057 25.868-9.5518-9.6218-26.057z"/> </g> <g fill="#f8b988"> <path d="m786.22 382.21v0.00128c4.4e-4 0.41932-0.3391 0.75953-0.7585 0.7599-0.4192 4.2e-4 -0.7595-0.33912-0.7598-0.75843v-0.00127c-4e-4 -0.41938 0.3391-0.75953 0.7585-0.75996 0.41923-3.7e-4 0.7594 0.33911 0.7598 0.75848z"/> </g> </svg>